<?xml version="1.0" encoding="UTF-8" standalone="no"?>
<!-- Created with Inkscape (http://www.inkscape.org/) -->

<svg
   xmlns:dc="http://purl.org/dc/elements/1.1/"
   xmlns:cc="http://creativecommons.org/ns#"
   xmlns:rdf="http://www.w3.org/1999/02/22-rdf-syntax-ns#"
   xmlns:svg="http://www.w3.org/2000/svg"
   xmlns="http://www.w3.org/2000/svg"
   xmlns:sodipodi="http://sodipodi.sourceforge.net/DTD/sodipodi-0.dtd"
   xmlns:inkscape="http://www.inkscape.org/namespaces/inkscape"
   width="390.5592"
   height="146.47955"
   id="svg6060"
   version="1.1"
   inkscape:version="0.48.4 r9939"
   sodipodi:docname="Neues Dokument 9">
  <defs
     id="defs6062" />
  <sodipodi:namedview
     id="base"
     pagecolor="#ffffff"
     bordercolor="#666666"
     borderopacity="1.0"
     inkscape:pageopacity="0.0"
     inkscape:pageshadow="2"
     inkscape:zoom="1.979899"
     inkscape:cx="71.749124"
     inkscape:cy="-19.458995"
     inkscape:document-units="px"
     inkscape:current-layer="layer1"
     showgrid="false"
     fit-margin-top="0"
     fit-margin-left="0"
     fit-margin-right="0"
     fit-margin-bottom="0"
     inkscape:window-width="718"
     inkscape:window-height="882"
     inkscape:window-x="0"
     inkscape:window-y="16"
     inkscape:window-maximized="0" />
  <metadata
     id="metadata6065">
    <rdf:RDF>
      <cc:Work
         rdf:about="">
        <dc:format>image/svg+xml</dc:format>
        <dc:type
           rdf:resource="http://purl.org/dc/dcmitype/StillImage" />
        <dc:title></dc:title>
      </cc:Work>
    </rdf:RDF>
  </metadata>
  <g
     inkscape:label="Ebene 1"
     inkscape:groupmode="layer"
     id="layer1"
     transform="translate(-327.57755,-50.550971)">
    <g
       id="layer10"
       style="display:inline"
       transform="translate(230.15143,232.42216)">
      <g
         id="g7772"
         transform="translate(-12.612414,-236.48277)">
        <g
           style="font-size:90.09942627px;font-style:normal;font-weight:normal;line-height:125%;letter-spacing:0px;word-spacing:0px;fill:#000000;fill-opacity:1;stroke:none;display:inline;font-family:Sans"
           id="flowRoot3779"
           transform="matrix(0.68680063,-0.18402769,0.18402769,0.68680063,61.453409,111.2376)">
          <path
             style="font-weight:bold;letter-spacing:-5px;fill:#fffffa;fill-opacity:1;-inkscape-font-specification:Sans Bold"
             id="path8511"
             d="m 291.64578,51.904944 18.91736,0 23.88867,45.049713 0,-45.049713 16.05776,0 0,65.682836 -18.91736,0 -23.88867,-45.049716 0,45.049716 -16.05776,0 0,-65.682836"
             inkscape:connector-curvature="0" />
          <path
             style="font-weight:bold;letter-spacing:-5px;fill:#fffffa;fill-opacity:1;-inkscape-font-specification:Sans Bold"
             id="path8513"
             d="m 384.88408,78.389248 c -3.49021,3.9e-5 -6.15917,1.261195 -8.00688,3.783472 -1.81844,2.493018 -2.72764,6.100511 -2.72762,10.82249 -2e-5,4.722027 0.90918,8.34418 2.72762,10.86648 1.84771,2.493 4.51667,3.73949 8.00688,3.73948 3.43149,1e-5 6.05645,-1.24648 7.8749,-3.73948 1.81837,-2.5223 2.72758,-6.144453 2.72762,-10.86648 -4e-5,-4.721979 -0.90925,-8.329472 -2.72762,-10.82249 -1.81845,-2.522277 -4.44341,-3.783433 -7.8749,-3.783472 m 0,-11.262428 c 8.47611,5e-5 15.08985,2.287728 19.84123,6.863042 4.78061,4.5754 7.17094,10.91051 7.171,19.005348 -6e-5,8.09489 -2.39039,14.43 -7.171,19.00535 -4.75138,4.57536 -11.36512,6.86304 -19.84123,6.86304 -8.5055,0 -15.16323,-2.28768 -19.97321,-6.86304 -4.78068,-4.57535 -7.17101,-10.91046 -7.171,-19.00535 -10e-6,-8.094838 2.39032,-14.429948 7.171,-19.005348 4.80998,-4.575314 11.46771,-6.862992 19.97321,-6.863042"
             inkscape:connector-curvature="0" />
          <path
             style="font-weight:bold;letter-spacing:-5px;fill:#fffffa;fill-opacity:1;-inkscape-font-specification:Sans Bold"
             id="path8515"
             d="m 441.82744,78.389248 c -3.49021,3.9e-5 -6.15917,1.261195 -8.00688,3.783472 -1.81844,2.493018 -2.72764,6.100511 -2.72762,10.82249 -2e-5,4.722027 0.90918,8.34418 2.72762,10.86648 1.84771,2.493 4.51667,3.73949 8.00688,3.73948 3.43149,1e-5 6.05645,-1.24648 7.8749,-3.73948 1.81837,-2.5223 2.72758,-6.144453 2.72762,-10.86648 -4e-5,-4.721979 -0.90925,-8.329472 -2.72762,-10.82249 -1.81845,-2.522277 -4.44341,-3.783433 -7.8749,-3.783472 m 0,-11.262428 c 8.47611,5e-5 15.08985,2.287728 19.84123,6.863042 4.78061,4.5754 7.17094,10.91051 7.171,19.005348 -6e-5,8.09489 -2.39039,14.43 -7.171,19.00535 -4.75138,4.57536 -11.36512,6.86304 -19.84123,6.86304 -8.5055,0 -15.16323,-2.28768 -19.97321,-6.86304 -4.78068,-4.57535 -7.17101,-10.91046 -7.171,-19.00535 -10e-6,-8.094838 2.39032,-14.429948 7.171,-19.005348 4.80998,-4.575314 11.46771,-6.862992 19.97321,-6.863042"
             inkscape:connector-curvature="0" />
          <path
             style="font-weight:bold;letter-spacing:-5px;fill:#fffffa;fill-opacity:1;-inkscape-font-specification:Sans Bold"
             id="path8517"
             d="m 475.32207,49.133331 15.7498,0 0,37.262799 18.12547,-18.081476 18.30145,0 -24.06464,22.612844 25.95638,26.660282 -19.09334,0 -19.22532,-20.545135 0,20.545135 -15.7498,0 0,-68.454449"
             inkscape:connector-curvature="0" />
        </g>
        <g
           id="g8623"
           style="fill:#a3c7e7;fill-opacity:1">
          <path
             inkscape:connector-curvature="0"
             d="m 56.833346,51.904944 21.556991,0 14.957913,35.151094 15.0459,-35.151094 21.513,0 0,65.682836 -16.01377,0 0,-48.041298 -15.133885,35.415058 -10.734502,0 -15.133888,-35.415058 0,48.041298 -16.057759,0 0,-65.682836"
             id="path8503"
             style="font-size:90.09942627px;font-style:normal;font-weight:normal;line-height:125%;letter-spacing:0px;word-spacing:0px;fill:#a3c7e7;fill-opacity:1;stroke:none;display:inline;font-family:Sans"
             transform="matrix(0.68680063,-0.18402769,0.18402769,0.68680063,61.453409,111.2376)" />
          <path
             inkscape:connector-curvature="0"
             d="m 190.06205,92.819234 0,4.487374 -36.82286,0 c 0.38126,3.695502 1.71574,6.467112 4.00344,8.314842 2.28766,1.84775 5.48454,2.77162 9.59067,2.77161 3.31416,10e-6 6.70169,-0.48392 10.16258,-1.4518 3.49013,-0.99718 7.06829,-2.49297 10.7345,-4.48737 l 0,12.14231 c -3.72486,1.4078 -7.44967,2.46365 -11.17444,3.16755 -3.72485,0.73323 -7.44966,1.09985 -11.17444,1.09985 -8.91611,0 -15.85247,-2.25835 -20.8091,-6.77506 -4.92732,-4.54602 -7.39097,-10.91046 -7.39097,-19.09333 0,-8.03618 2.41966,-14.356625 7.25899,-18.961354 4.86864,-4.604643 11.5557,-6.906986 20.0612,-6.907036 7.74288,5e-5 13.93135,2.331722 18.56541,6.995023 4.6633,4.663388 6.99497,10.895846 6.99502,18.697391 m -16.18974,-5.235269 c -4e-5,-2.99155 -0.87991,-5.396545 -2.63963,-7.214993 -1.73046,-1.847703 -4.00347,-2.771574 -6.81905,-2.771614 -3.05027,4e-5 -5.52858,0.865252 -7.43496,2.595638 -1.90642,1.701132 -3.09425,4.164785 -3.5635,7.390969 l 20.45714,0"
             id="path8505"
             style="font-size:90.09942627px;font-style:normal;font-weight:normal;line-height:125%;letter-spacing:0px;word-spacing:0px;fill:#a3c7e7;fill-opacity:1;stroke:none;display:inline;font-family:Sans"
             transform="matrix(0.68680063,-0.18402769,0.18402769,0.68680063,61.453409,111.2376)" />
          <path
             inkscape:connector-curvature="0"
             d="m 214.14199,54.324606 0,13.990048 16.23373,0 0,11.262428 -16.23373,0 0,20.897088 c -3e-5,2.28769 0.45458,3.84214 1.36381,4.66335 0.90918,0.7919 2.71292,1.18784 5.41124,1.18783 l 8.09487,0 0,11.26243 -13.50611,0 c -6.21782,0 -10.63187,-1.29049 -13.24216,-3.87146 -2.58098,-2.6103 -3.87146,-7.02434 -3.87145,-13.24215 l 0,-20.897088 -7.83091,0 0,-11.262428 7.83091,0 0,-13.990048 15.7498,0"
             id="path8507"
             style="font-size:90.09942627px;font-style:normal;font-weight:normal;line-height:125%;letter-spacing:0px;word-spacing:0px;fill:#a3c7e7;fill-opacity:1;stroke:none;display:inline;font-family:Sans"
             transform="matrix(0.68680063,-0.18402769,0.18402769,0.68680063,61.453409,111.2376)" />
          <path
             inkscape:connector-curvature="0"
             d="m 257.13929,95.414872 c -3.2849,2.2e-5 -5.76322,0.557277 -7.43496,1.671767 -1.64246,1.11453 -2.46368,2.756966 -2.46366,4.927311 -2e-5,1.9944 0.65989,3.56352 1.97972,4.70734 1.34913,1.11452 3.21153,1.67178 5.58722,1.67177 2.96223,10e-6 5.45521,-1.05584 7.47896,-3.16756 2.02368,-2.14102 3.03554,-4.80998 3.03558,-8.00688 l 0,-1.803748 -8.18286,0 m 24.06464,-5.939171 0,28.112079 -15.88178,0 0,-7.30298 c -2.11174,2.99158 -4.48741,5.17661 -7.12701,6.55508 -2.63966,1.34915 -5.85121,2.02372 -9.63465,2.02372 -5.10331,0 -9.25339,-1.48113 -12.45027,-4.44338 -3.16756,-2.99158 -4.75134,-6.86303 -4.75133,-11.61438 -1e-5,-5.777839 1.97971,-10.01591 5.93917,-12.714225 3.98876,-2.69826 10.23588,-4.047404 18.74138,-4.047435 l 9.28271,0 0,-1.231829 c -4e-5,-2.49295 -0.98257,-4.311361 -2.94759,-5.455238 -1.96509,-1.17313 -5.03,-1.759715 -9.19472,-1.759755 -3.37288,4e-5 -6.51111,0.337326 -9.41468,1.011859 -2.90361,0.674611 -5.6019,1.686469 -8.09488,3.035577 l 0,-12.010324 c 3.37286,-0.82117 6.76038,-1.437084 10.16259,-1.847743 3.40217,-0.439888 6.80436,-0.659857 10.20657,-0.659907 8.88672,5e-5 15.29516,1.759803 19.22532,5.279263 3.95939,3.490221 5.93912,9.180088 5.93917,17.069618"
             id="path8509"
             style="font-size:90.09942627px;font-style:normal;font-weight:normal;line-height:125%;letter-spacing:0px;word-spacing:0px;fill:#a3c7e7;fill-opacity:1;stroke:none;display:inline;font-family:Sans"
             transform="matrix(0.68680063,-0.18402769,0.18402769,0.68680063,61.453409,111.2376)" />
          <g
             transform="matrix(0.42972462,-0.11514437,0.11514437,0.42972462,157.0645,32.82633)"
             id="text3787"
             style="font-size:40px;font-style:normal;font-weight:normal;line-height:125%;letter-spacing:-2px;word-spacing:0px;fill:#a3c7e7;fill-opacity:1;stroke:none;display:inline;font-family:Sans">
            <path
               inkscape:connector-curvature="0"
               d="m -140.3009,347.87909 0,-20.22412 c -3e-5,-0.80516 0.008,-1.63401 0.0237,-2.48657 0.0158,-0.85252 0.0394,-1.63401 0.071,-2.34449 -2e-5,3e-5 0.0315,-0.81304 0.0947,-2.43921 -3e-5,3e-5 -0.26052,1.18411 -0.78149,3.55225 -3e-5,2e-5 -0.11054,0.48944 -0.33155,1.46826 l -0.33154,1.46826 -0.30786,1.32618 -0.28418,1.06567 -4.92578,18.61377 -4.09693,0 -4.92578,-18.61377 c -0.0789,-0.29995 -0.16578,-0.65517 -0.2605,-1.06567 l -0.30786,-1.32618 -0.35522,-1.46826 -0.33154,-1.46826 c -1e-5,2e-5 -0.2763,-1.18406 -0.82886,-3.55225 0.0316,0.91572 0.071,1.81562 0.11841,2.69971 0.0316,0.75784 0.0553,1.55512 0.071,2.39185 0.0316,0.83677 0.0474,1.56301 0.0474,2.17871 l 0,20.22412 -5.09155,0 0,-33.36743 7.67285,0 4.9021,18.66113 c 0.12629,0.48944 0.26049,1.08937 0.40259,1.79981 l 0.44995,2.0603 c -1e-5,1e-5 0.16576,0.80518 0.49732,2.41553 -2e-5,0 0.17364,-0.78938 0.52099,-2.36817 -1e-5,10e-6 0.0789,-0.33942 0.23682,-1.01831 l 0.23682,-1.01831 c 0.0789,-0.33153 0.15786,-0.64728 0.23681,-0.94727 l 0.21314,-0.80517 4.80737,-18.77954 7.64917,0 0,33.36743 -5.09155,0"
               id="path8306"
               style="font-size:48.5px;font-variant:normal;font-weight:bold;font-stretch:condensed;letter-spacing:0px;fill:#a3c7e7;fill-opacity:1;font-family:Liberation Sans Narrow;-inkscape-font-specification:Liberation Sans Narrow Bold Condensed" />
            <path
               inkscape:connector-curvature="0"
               d="m -121.14246,348.35272 c -1.51563,0 -2.88127,-0.26839 -4.09692,-0.80517 -1.21566,-0.55257 -2.24976,-1.38143 -3.10229,-2.48658 -0.85255,-1.12092 -1.50774,-2.51814 -1.96558,-4.19165 -0.44206,-1.68928 -0.66309,-3.66275 -0.66309,-5.92041 0,-2.44708 0.26839,-4.50738 0.80518,-6.1809 0.53678,-1.67349 1.25512,-3.02334 2.15503,-4.04957 0.91568,-1.04196 1.96557,-1.79188 3.14966,-2.24975 1.19986,-0.45782 2.46288,-0.68674 3.78906,-0.68677 1.6577,3e-5 3.0707,0.35525 4.23901,1.06568 1.16828,0.69468 2.12344,1.67352 2.86548,2.93652 0.75779,1.26304 1.31037,2.77866 1.65772,4.54687 0.36309,1.75246 0.54465,3.69435 0.54467,5.82569 l 0,0.18945 -13.47485,0 c -1e-5,1.07358 0.071,2.0761 0.21313,3.00757 0.15787,0.9157 0.41048,1.71298 0.75782,2.39184 0.34732,0.6631 0.79727,1.19199 1.34985,1.58667 0.56835,0.37891 1.24722,0.56837 2.03662,0.56836 0.96304,10e-6 1.74454,-0.2447 2.34448,-0.73413 0.61571,-0.5052 1.04988,-1.2788 1.30249,-2.3208 l 5.13892,0.54468 c -0.23684,0.72624 -0.56838,1.49984 -0.99463,2.3208 -0.4105,0.82097 -0.96307,1.57878 -1.65771,2.27344 -0.69468,0.67887 -1.56301,1.24723 -2.60498,1.70508 -1.04201,0.44205 -2.30503,0.66308 -3.78907,0.66308 m 0,-22.37915 c -0.55258,2e-5 -1.07357,0.11843 -1.56298,0.35523 -0.48943,0.22105 -0.9157,0.58416 -1.27881,1.08935 -0.34734,0.48944 -0.63152,1.12885 -0.85254,1.91821 -0.22104,0.78941 -0.34734,1.73668 -0.37891,2.8418 l 8.17017,0 c -0.11053,-2.06818 -0.52101,-3.61538 -1.23145,-4.6416 -0.71046,-1.04197 -1.66562,-1.56297 -2.86548,-1.56299"
               id="path8308"
               style="font-size:48.5px;font-variant:normal;font-weight:bold;font-stretch:condensed;letter-spacing:0px;fill:#a3c7e7;fill-opacity:1;font-family:Liberation Sans Narrow;-inkscape-font-specification:Liberation Sans Narrow Bold Condensed" />
            <path
               inkscape:connector-curvature="0"
               d="m -102.22083,348.30536 c -1.61035,0 -2.84969,-0.52889 -3.71801,-1.58667 -0.85255,-1.07357 -1.27881,-2.69181 -1.27881,-4.85474 l 0,-15.10888 -2.67603,0 0,-4.49952 2.93653,0 1.70507,-6.01513 3.43384,0 0,6.01513 3.978518,0 0,4.49952 -3.978518,0 0,13.30908 c -1e-5,1.24724 0.18945,2.17082 0.56836,2.77075 0.39469,0.58415 0.99462,0.87622 1.799807,0.87622 0.331531,0 0.631499,-0.0316 0.899902,-0.0947 0.284168,-0.0631 0.599923,-0.14208 0.947266,-0.23681 l 0,4.1206 c -0.678886,0.2684 -1.397228,0.46574 -2.15503,0.59204 -0.742035,0.14209 -1.562995,0.21314 -2.462895,0.21314"
               id="path8310"
               style="font-size:48.5px;font-variant:normal;font-weight:bold;font-stretch:condensed;letter-spacing:0px;fill:#a3c7e7;fill-opacity:1;font-family:Liberation Sans Narrow;-inkscape-font-specification:Liberation Sans Narrow Bold Condensed" />
            <path
               inkscape:connector-curvature="0"
               d="m -89.480103,348.35272 c -1.010423,0 -1.918218,-0.16577 -2.723388,-0.49731 -0.789392,-0.34733 -1.460371,-0.84465 -2.01294,-1.49195 -0.552574,-0.66308 -0.978843,-1.47615 -1.278808,-2.4392 -0.299969,-0.96305 -0.449953,-2.0603 -0.449951,-3.29175 -2e-6,-1.51562 0.213133,-2.78653 0.639404,-3.81275 0.442055,-1.04198 1.034095,-1.87873 1.776123,-2.51025 0.757808,-0.64728 1.641922,-1.11302 2.652344,-1.39722 1.010409,-0.29995 2.083976,-0.45783 3.220703,-0.47363 l 4.523193,-0.0947 0,-1.30249 c -1.4e-5,-0.93146 -0.07106,-1.70506 -0.213135,-2.3208 -0.126315,-0.63149 -0.323662,-1.14459 -0.592041,-1.5393 -0.252617,-0.39468 -0.568372,-0.67096 -0.947265,-0.82886 -0.378918,-0.17365 -0.813081,-0.26048 -1.30249,-0.2605 -0.457856,2e-5 -0.868337,0.0553 -1.231446,0.16577 -0.34734,0.11054 -0.655201,0.30788 -0.923584,0.59204 -0.252612,0.26842 -0.457853,0.63943 -0.615722,1.11304 -0.157886,0.45786 -0.2684,1.04201 -0.331543,1.75244 l -5.707276,-0.33154 c 0.157876,-1.12091 0.442055,-2.13922 0.852539,-3.05493 0.426266,-0.93146 1.002519,-1.73663 1.72876,-2.41553 0.726232,-0.67885 1.626133,-1.19985 2.699707,-1.56299 1.073559,-0.37888 2.328685,-0.56833 3.765381,-0.56836 1.310372,3e-5 2.470771,0.19737 3.481201,0.59204 1.026189,0.39472 1.894515,0.98676 2.604981,1.77613 0.710431,0.77362 1.255108,1.72878 1.634033,2.86547 0.378887,1.13674 0.56834,2.45502 0.568359,3.95484 l 0,9.33056 c -1.9e-5,0.59995 0.02366,1.13673 0.07104,1.61036 0.04734,0.47363 0.126282,0.87622 0.236816,1.20776 0.126283,0.31576 0.299948,0.56047 0.520997,0.73413 0.236795,0.15788 0.536763,0.23682 0.899902,0.23682 0.41046,0 0.813048,-0.0474 1.207764,-0.14209 l 0,3.59961 c -2.3e-5,0 -0.292096,0.0868 -0.876221,0.26049 -0.268413,0.0789 -0.528911,0.14209 -0.781494,0.18946 -0.252625,0.0474 -0.52891,0.0868 -0.828858,0.11841 -0.284199,0.0316 -0.623636,0.0474 -1.01831,0.0474 -1.373553,0 -2.391862,-0.41048 -3.054932,-1.23145 -0.647313,-0.82096 -1.034113,-2.02872 -1.1604,-3.62329 l -0.118408,0 c -0.726251,1.59457 -1.657728,2.83391 -2.794434,3.71802 -1.136729,0.88411 -2.510263,1.32617 -4.120606,1.32617 m 6.34668,-12.33813 -2.794433,0.0474 c -0.584158,0.0316 -1.136729,0.0947 -1.657715,0.18945 -0.521005,0.079 -0.97885,0.26051 -1.373535,0.54468 -0.394702,0.2684 -0.710457,0.6631 -0.947266,1.18408 -0.236823,0.52101 -0.355232,1.23146 -0.355225,2.13135 -7e-6,1.21567 0.228916,2.12346 0.686768,2.72339 0.473625,0.58415 1.089347,0.87622 1.847168,0.87622 0.694651,0 1.326161,-0.18155 1.894531,-0.54468 0.584135,-0.36311 1.073555,-0.83674 1.468262,-1.4209 0.394681,-0.59992 0.694648,-1.28669 0.899902,-2.0603 0.221015,-0.77359 0.331529,-1.56298 0.331543,-2.36816 l 0,-1.30249"
               id="path8312"
               style="font-size:48.5px;font-variant:normal;font-weight:bold;font-stretch:condensed;letter-spacing:0px;fill:#a3c7e7;fill-opacity:1;font-family:Liberation Sans Narrow;-inkscape-font-specification:Liberation Sans Narrow Bold Condensed" />
            <path
               inkscape:connector-curvature="0"
               d="m -49.552856,347.87909 0,-20.22412 c -2.6e-5,-0.80516 0.0079,-1.63401 0.02368,-2.48657 0.01576,-0.85252 0.03944,-1.63401 0.07105,-2.34449 -2.5e-5,3e-5 0.03155,-0.81304 0.09473,-2.43921 -2.6e-5,3e-5 -0.260524,1.18411 -0.781494,3.55225 -2.5e-5,2e-5 -0.110539,0.48944 -0.331543,1.46826 l -0.331543,1.46826 -0.307862,1.32618 -0.284179,1.06567 -4.925782,18.61377 -4.096923,0 -4.925782,-18.61377 c -0.07895,-0.29995 -0.165781,-0.65517 -0.260498,-1.06567 l -0.307861,-1.32618 -0.355225,-1.46826 -0.331543,-1.46826 c -8e-6,2e-5 -0.276294,-1.18406 -0.828857,-3.55225 0.03157,0.91572 0.07104,1.81562 0.118408,2.69971 0.03157,0.75784 0.05525,1.55512 0.07104,2.39185 0.03157,0.83677 0.04736,1.56301 0.04736,2.17871 l 0,20.22412 -5.091552,0 0,-33.36743 7.672851,0 4.9021,18.66113 c 0.126286,0.48944 0.260482,1.08937 0.402588,1.79981 l 0.449951,2.0603 c -1.6e-5,1e-5 0.165755,0.80518 0.497314,2.41553 -1.6e-5,0 0.173649,-0.78938 0.520996,-2.36817 -1.7e-5,10e-6 0.07892,-0.33942 0.236817,-1.01831 l 0.236816,-1.01831 c 0.07892,-0.33153 0.15786,-0.64728 0.236817,-0.94727 l 0.213134,-0.80517 4.807373,-18.77954 7.64917,0 0,33.36743 -5.091552,0"
               id="path8314"
               style="font-size:48.5px;font-variant:normal;font-weight:bold;font-stretch:condensed;letter-spacing:0px;fill:#a3c7e7;fill-opacity:1;font-family:Liberation Sans Narrow;-inkscape-font-specification:Liberation Sans Narrow Bold Condensed" />
            <path
               inkscape:connector-curvature="0"
               d="m -30.394409,348.35272 c -1.515635,0 -2.881275,-0.26839 -4.096924,-0.80517 -1.215664,-0.55257 -2.249761,-1.38143 -3.102295,-2.48658 -0.852542,-1.12092 -1.507734,-2.51814 -1.965576,-4.19165 -0.442059,-1.68928 -0.663088,-3.66275 -0.663086,-5.92041 -2e-6,-2.44708 0.26839,-4.50738 0.805176,-6.1809 0.536781,-1.67349 1.255123,-3.02334 2.155029,-4.04957 0.915685,-1.04196 1.96557,-1.79188 3.149658,-2.24975 1.199861,-0.45782 2.462881,-0.68674 3.789063,-0.68677 1.657701,3e-5 3.070705,0.35525 4.239013,1.06568 1.168278,0.69468 2.123436,1.67352 2.865479,2.93652 0.757793,1.26304 1.310364,2.77866 1.657715,4.54687 0.363098,1.75246 0.544657,3.69435 0.544678,5.82569 l 0,0.18945 -13.474854,0 c -7e-6,1.07358 0.07104,2.0761 0.213135,3.00757 0.15787,0.9157 0.410474,1.71298 0.757812,2.39184 0.347322,0.6631 0.797273,1.19199 1.349854,1.58667 0.568349,0.37891 1.247222,0.56837 2.036621,0.56836 0.963041,10e-6 1.744534,-0.2447 2.344482,-0.73413 0.615708,-0.5052 1.049871,-1.2788 1.302491,-2.3208 l 5.138916,0.54468 c -0.236837,0.72624 -0.56838,1.49984 -0.994629,2.3208 -0.410501,0.82097 -0.963072,1.57878 -1.657715,2.27344 -0.694679,0.67887 -1.563005,1.24723 -2.604981,1.70508 -1.042006,0.44205 -2.305026,0.66308 -3.789062,0.66308 m 0,-22.37915 c -0.552583,2e-5 -1.073578,0.11843 -1.562988,0.35523 -0.48943,0.22105 -0.915699,0.58416 -1.278809,1.08935 -0.347339,0.48944 -0.631518,1.12885 -0.852539,1.91821 -0.221036,0.78941 -0.347338,1.73668 -0.378906,2.8418 l 8.170166,0 c -0.11053,-2.06818 -0.521011,-3.61538 -1.231446,-4.6416 -0.710462,-1.04197 -1.665621,-1.56297 -2.865478,-1.56299"
               id="path8316"
               style="font-size:48.5px;font-variant:normal;font-weight:bold;font-stretch:condensed;letter-spacing:0px;fill:#a3c7e7;fill-opacity:1;font-family:Liberation Sans Narrow;-inkscape-font-specification:Liberation Sans Narrow Bold Condensed" />
            <path
               inkscape:connector-curvature="0"
               d="m -11.685913,322.25555 0,14.37476 c -8e-6,0.99464 0.06314,1.91033 0.189453,2.74707 0.126294,0.82097 0.339428,1.53142 0.639404,2.13135 0.299959,0.58415 0.686758,1.042 1.1604007,1.37353 0.4736224,0.33155 1.0498751,0.49732 1.7287598,0.49732 0.6630736,0 1.2630079,-0.17366 1.7998047,-0.521 0.5367698,-0.36311 0.9946144,-0.86832 1.3735351,-1.51562 0.3946788,-0.66308 0.694646,-1.44458 0.8999024,-2.34449 0.2210127,-0.91568 0.3315269,-1.9182 0.3315429,-3.00756 l 0,-13.73536 5.470459,0 0,19.89258 c -2.15e-5,0.53679 -2.15e-5,1.10515 0,1.70508 0.015766,0.58415 0.031554,1.14462 0.047363,1.6814 0.015766,0.52099 0.031554,0.99463 0.047363,1.4209 0.015766,0.41048 0.031554,0.71834 0.047363,0.92358 l -5.209961,0 c -0.015804,-0.18945 -0.039486,-0.48942 -0.071045,-0.8999 -0.015804,-0.42627 -0.039486,-0.89201 -0.071045,-1.39722 -0.015804,-0.50521 -0.031592,-1.01041 -0.047363,-1.51562 -0.015804,-0.50521 -0.023698,-0.93148 -0.023682,-1.27881 l -0.094727,0 c -0.7262524,1.94189 -1.6498355,3.3549 -2.7707519,4.23901 -1.1209433,0.88411 -2.4550077,1.32617 -4.0021977,1.32617 -1.263029,0 -2.336596,-0.2526 -3.220703,-0.75781 -0.868332,-0.50521 -1.578781,-1.19197 -2.131348,-2.0603 -0.552575,-0.88411 -0.955162,-1.92611 -1.207763,-3.12598 -0.236819,-1.19986 -0.355228,-2.49446 -0.355225,-3.88379 l 0,-16.26929 5.470459,0"
               id="path8318"
               style="font-size:48.5px;font-variant:normal;font-weight:bold;font-stretch:condensed;letter-spacing:0px;fill:#a3c7e7;fill-opacity:1;font-family:Liberation Sans Narrow;-inkscape-font-specification:Liberation Sans Narrow Bold Condensed" />
            <path
               inkscape:connector-curvature="0"
               d="m 12.871948,348.30536 c -1.610358,0 -2.849696,-0.52889 -3.7180173,-1.58667 -0.8525427,-1.07357 -1.2788118,-2.69181 -1.2788086,-4.85474 l 0,-15.10888 -2.6760254,0 0,-4.49952 2.9365234,0 1.7050781,-6.01513 3.4338378,0 0,6.01513 3.978516,0 0,4.49952 -3.978516,0 0,13.30908 c -8e-6,1.24724 0.189445,2.17082 0.56836,2.77075 0.394684,0.58415 0.994618,0.87622 1.799804,0.87622 0.331532,0 0.631499,-0.0316 0.899903,-0.0947 0.284167,-0.0631 0.599922,-0.14208 0.947265,-0.23681 l 0,4.1206 c -0.678886,0.2684 -1.397228,0.46574 -2.155029,0.59204 -0.742035,0.14209 -1.562997,0.21314 -2.462891,0.21314"
               id="path8320"
               style="font-size:48.5px;font-variant:normal;font-weight:bold;font-stretch:condensed;letter-spacing:0px;fill:#a3c7e7;fill-opacity:1;font-family:Liberation Sans Narrow;-inkscape-font-specification:Liberation Sans Narrow Bold Condensed" />
            <path
               inkscape:connector-curvature="0"
               d="m 29.378052,348.35272 c -1.515635,0 -2.881275,-0.26839 -4.096924,-0.80517 -1.215664,-0.55257 -2.249761,-1.38143 -3.102295,-2.48658 -0.852542,-1.12092 -1.507734,-2.51814 -1.965576,-4.19165 -0.442059,-1.68928 -0.663088,-3.66275 -0.663086,-5.92041 -2e-6,-2.44708 0.26839,-4.50738 0.805176,-6.1809 0.536781,-1.67349 1.255123,-3.02334 2.155029,-4.04957 0.915685,-1.04196 1.96557,-1.79188 3.149658,-2.24975 1.199861,-0.45782 2.462881,-0.68674 3.789063,-0.68677 1.657701,3e-5 3.070705,0.35525 4.239013,1.06568 1.168278,0.69468 2.123436,1.67352 2.865479,2.93652 0.757793,1.26304 1.310364,2.77866 1.657715,4.54687 0.363098,1.75246 0.544657,3.69435 0.544677,5.82569 l 0,0.18945 -13.474853,0 c -7e-6,1.07358 0.07104,2.0761 0.213135,3.00757 0.15787,0.9157 0.410474,1.71298 0.757812,2.39184 0.347322,0.6631 0.797273,1.19199 1.349854,1.58667 0.568349,0.37891 1.247222,0.56837 2.036621,0.56836 0.963041,10e-6 1.744534,-0.2447 2.344482,-0.73413 0.615708,-0.5052 1.049871,-1.2788 1.30249,-2.3208 l 5.138916,0.54468 c -0.236836,0.72624 -0.568379,1.49984 -0.994628,2.3208 -0.410501,0.82097 -0.963072,1.57878 -1.657715,2.27344 -0.694679,0.67887 -1.563005,1.24723 -2.604981,1.70508 -1.042006,0.44205 -2.305026,0.66308 -3.789062,0.66308 m 0,-22.37915 c -0.552583,2e-5 -1.073578,0.11843 -1.562989,0.35523 -0.489429,0.22105 -0.915699,0.58416 -1.278808,1.08935 -0.347339,0.48944 -0.631518,1.12885 -0.852539,1.91821 -0.221036,0.78941 -0.347338,1.73668 -0.378906,2.8418 l 8.170166,0 c -0.11053,-2.06818 -0.521011,-3.61538 -1.231446,-4.6416 -0.710462,-1.04197 -1.665621,-1.56297 -2.865478,-1.56299"
               id="path8322"
               style="font-size:48.5px;font-variant:normal;font-weight:bold;font-stretch:condensed;letter-spacing:0px;fill:#a3c7e7;fill-opacity:1;font-family:Liberation Sans Narrow;-inkscape-font-specification:Liberation Sans Narrow Bold Condensed" />
            <path
               inkscape:connector-curvature="0"
               d="m 62.627075,348.35272 c -1.515635,0 -2.881275,-0.26839 -4.096924,-0.80517 -1.215663,-0.55257 -2.249761,-1.38143 -3.102295,-2.48658 -0.852542,-1.12092 -1.507733,-2.51814 -1.965576,-4.19165 -0.442059,-1.68928 -0.663087,-3.66275 -0.663086,-5.92041 -10e-7,-2.44708 0.26839,-4.50738 0.805176,-6.1809 0.536781,-1.67349 1.255123,-3.02334 2.155029,-4.04957 0.915685,-1.04196 1.96557,-1.79188 3.149659,-2.24975 1.199861,-0.45782 2.46288,-0.68674 3.789062,-0.68677 1.657702,3e-5 3.070705,0.35525 4.239014,1.06568 1.168277,0.69468 2.123436,1.67352 2.865478,2.93652 0.757793,1.26304 1.310365,2.77866 1.657715,4.54687 0.363098,1.75246 0.544657,3.69435 0.544678,5.82569 l 0,0.18945 -13.474854,0 c -7e-6,1.07358 0.07104,2.0761 0.213135,3.00757 0.15787,0.9157 0.410474,1.71298 0.757813,2.39184 0.347322,0.6631 0.797272,1.19199 1.349853,1.58667 0.568349,0.37891 1.247222,0.56837 2.036621,0.56836 0.963041,10e-6 1.744534,-0.2447 2.344483,-0.73413 0.615708,-0.5052 1.049871,-1.2788 1.30249,-2.3208 l 5.138916,0.54468 c -0.236837,0.72624 -0.568379,1.49984 -0.994629,2.3208 -0.410501,0.82097 -0.963072,1.57878 -1.657715,2.27344 -0.694678,0.67887 -1.563004,1.24723 -2.60498,1.70508 -1.042007,0.44205 -2.305026,0.66308 -3.789063,0.66308 m 0,-22.37915 c -0.552582,2e-5 -1.073578,0.11843 -1.562988,0.35523 -0.48943,0.22105 -0.915699,0.58416 -1.278809,1.08935 -0.347339,0.48944 -0.631518,1.12885 -0.852539,1.91821 -0.221036,0.78941 -0.347338,1.73668 -0.378906,2.8418 l 8.170166,0 c -0.11053,-2.06818 -0.521011,-3.61538 -1.231445,-4.6416 -0.710463,-1.04197 -1.665622,-1.56297 -2.865479,-1.56299"
               id="path8324"
               style="font-size:48.5px;font-variant:normal;font-weight:bold;font-stretch:condensed;letter-spacing:0px;fill:#a3c7e7;fill-opacity:1;font-family:Liberation Sans Narrow;-inkscape-font-specification:Liberation Sans Narrow Bold Condensed" />
            <path
               inkscape:connector-curvature="0"
               d="m 89.789917,347.87909 0,-14.37476 c -1.6e-5,-0.99461 -0.06317,-1.90241 -0.189453,-2.72339 -0.126318,-0.83673 -0.339453,-1.54718 -0.639404,-2.13134 -0.299983,-0.59992 -0.694677,-1.06566 -1.184082,-1.39722 -0.473647,-0.33152 -1.0499,-0.49729 -1.72876,-0.49731 -0.663098,2e-5 -1.263032,0.18158 -1.799805,0.54467 -0.536794,0.34735 -1.002533,0.85256 -1.397217,1.51563 -0.378915,0.64732 -0.678882,1.42881 -0.899902,2.34448 -0.205249,0.89992 -0.30787,1.89455 -0.307861,2.98389 l 0,13.73535 -5.470459,0 0,-19.89258 c -3e-6,-0.55255 -0.0079,-1.12091 -0.02368,-1.70508 -3e-6,-0.58412 -0.0079,-1.13669 -0.02368,-1.65771 -0.01579,-0.53676 -0.03158,-1.01039 -0.04736,-1.4209 -0.01579,-0.42624 -0.03158,-0.742 -0.04736,-0.94727 l 5.209961,0 c 0.03157,0.18948 0.05525,0.49734 0.07105,0.92359 0.01578,0.4105 0.03946,0.86835 0.07104,1.37353 0.03157,0.50523 0.05525,1.01044 0.07104,1.51563 0.01578,0.50523 0.02367,0.9315 0.02368,1.27881 l 0.07104,0 c 0.742016,-1.95766 1.665599,-3.37856 2.770752,-4.2627 1.120919,-0.88409 2.454983,-1.32614 4.002197,-1.32617 1.263005,3e-5 2.328678,0.25263 3.197022,0.75781 0.884095,0.50524 1.602438,1.1999 2.155029,2.08399 0.552551,0.88413 0.947244,1.92612 1.184082,3.12597 0.252583,1.19989 0.378885,2.49449 0.378906,3.88379 l 0,16.26929 -5.446777,0"
               id="path8326"
               style="font-size:48.5px;font-variant:normal;font-weight:bold;font-stretch:condensed;letter-spacing:0px;fill:#a3c7e7;fill-opacity:1;font-family:Liberation Sans Narrow;-inkscape-font-specification:Liberation Sans Narrow Bold Condensed" />
            <path
               inkscape:connector-curvature="0"
               d="m 109.32727,358.15692 c -1.38933,-1e-5 -2.61288,-0.17367 -3.67065,-0.52099 -1.05779,-0.33156 -1.95769,-0.80519 -2.69971,-1.4209 -0.74203,-0.59995 -1.34196,-1.32618 -1.79981,-2.17871 -0.44206,-0.83676 -0.74202,-1.76034 -0.8999,-2.77076 l 5.44678,-0.78149 c 0.18944,1.0262 0.60782,1.83138 1.25513,2.41553 0.64728,0.58414 1.48404,0.87621 2.51025,0.87622 0.64729,-1e-5 1.23933,-0.11052 1.77612,-0.33155 0.53677,-0.22103 0.99462,-0.59993 1.37354,-1.13671 0.39468,-0.521 0.69464,-1.21566 0.8999,-2.08399 0.22101,-0.86833 0.33153,-1.94189 0.33154,-3.2207 -1e-5,0 -1e-5,-0.44995 0,-1.34985 -1e-5,-0.45785 0.008,-0.87622 0.0237,-1.25513 0.0158,-0.44206 0.0237,-0.86832 0.0237,-1.27881 l -0.0474,0 c -0.63152,1.65772 -1.52353,2.85759 -2.67602,3.59961 -1.13673,0.74202 -2.50237,1.11304 -4.09693,1.11304 -1.32618,0 -2.47079,-0.31576 -3.43383,-0.94727 -0.96306,-0.6473 -1.76824,-1.5393 -2.41553,-2.67602 -0.63151,-1.15251 -1.09725,-2.51815 -1.397217,-4.09693 -0.29997,-1.59455 -0.449953,-3.34699 -0.449952,-5.25732 -1e-6,-1.97346 0.157876,-3.75747 0.473633,-5.35205 0.331536,-1.61034 0.828856,-2.99176 1.491946,-4.14429 0.66308,-1.15248 1.49983,-2.0366 2.51025,-2.65234 1.0262,-0.63149 2.24186,-0.94724 3.64697,-0.94727 1.4051,3e-5 2.66023,0.36314 3.76539,1.08936 1.10512,0.72626 1.96556,1.90244 2.58129,3.52856 l 0.0947,0 c -2e-5,-0.33152 0.008,-0.71043 0.0237,-1.13672 0.0158,-0.44203 0.0395,-0.86041 0.071,-1.25513 0.0316,-0.41045 0.0631,-0.77357 0.0947,-1.08935 0.0316,-0.31573 0.0552,-0.52887 0.071,-0.63941 l 5.18628,0 c -0.0316,0.56839 -0.0632,1.36567 -0.0947,2.39185 -0.0158,1.02623 -0.0237,2.20241 -0.0237,3.52856 l 0,18.92164 c -2e-5,1.86295 -0.22105,3.48119 -0.66309,4.85473 -0.44207,1.38932 -1.08937,2.54182 -1.94189,3.45752 -0.83677,0.91568 -1.87876,1.60245 -3.12598,2.0603 -1.23146,0.45784 -2.63657,0.68676 -4.21533,0.68677 m 4.57056,-23.44482 c -2e-5,-1.61034 -0.13421,-2.9523 -0.40259,-4.02588 -0.25262,-1.07355 -0.59206,-1.93398 -1.01831,-2.5813 -0.4105,-0.64728 -0.88413,-1.10512 -1.4209,-1.37354 -0.5368,-0.26837 -1.07358,-0.40256 -1.61035,-0.40258 -0.69467,2e-5 -1.31829,0.16579 -1.87085,0.49731 -0.53679,0.33156 -0.99464,0.84467 -1.37354,1.53931 -0.36312,0.69468 -0.6473,1.57879 -0.85254,2.65234 -0.18946,1.07358 -0.28418,2.35239 -0.28417,3.83643 -1e-5,2.76287 0.36311,4.84685 1.08935,6.25195 0.72623,1.40512 1.80769,2.10767 3.24439,2.10767 0.53677,0 1.07355,-0.1263 1.61035,-0.37891 0.55255,-0.26839 1.04197,-0.72623 1.46826,-1.37354 0.42625,-0.66307 0.76569,-1.53929 1.01831,-2.62866 0.26838,-1.08934 0.40257,-2.46288 0.40259,-4.1206"
               id="path8328"
               style="font-size:48.5px;font-variant:normal;font-weight:bold;font-stretch:condensed;letter-spacing:0px;fill:#a3c7e7;fill-opacity:1;font-family:Liberation Sans Narrow;-inkscape-font-specification:Liberation Sans Narrow Bold Condensed" />
            <path
               inkscape:connector-curvature="0"
               d="m 129.71716,348.35272 c -1.01042,0 -1.91822,-0.16577 -2.72339,-0.49731 -0.78939,-0.34733 -1.46037,-0.84465 -2.01294,-1.49195 -0.55257,-0.66308 -0.97884,-1.47615 -1.2788,-2.4392 -0.29997,-0.96305 -0.44996,-2.0603 -0.44995,-3.29175 -1e-5,-1.51562 0.21313,-2.78653 0.6394,-3.81275 0.44205,-1.04198 1.03409,-1.87873 1.77612,-2.51025 0.75781,-0.64728 1.64192,-1.11302 2.65235,-1.39722 1.01041,-0.29995 2.08397,-0.45783 3.2207,-0.47363 l 4.52319,-0.0947 0,-1.30249 c -1e-5,-0.93146 -0.0711,-1.70506 -0.21313,-2.3208 -0.12632,-0.63149 -0.32366,-1.14459 -0.59204,-1.5393 -0.25262,-0.39468 -0.56837,-0.67096 -0.94727,-0.82886 -0.37892,-0.17365 -0.81308,-0.26048 -1.30249,-0.2605 -0.45785,2e-5 -0.86834,0.0553 -1.23144,0.16577 -0.34734,0.11054 -0.65521,0.30788 -0.92359,0.59204 -0.25261,0.26842 -0.45785,0.63943 -0.61572,1.11304 -0.15789,0.45786 -0.2684,1.04201 -0.33154,1.75244 l -5.70728,-0.33154 c 0.15788,-1.12091 0.44206,-2.13922 0.85254,-3.05493 0.42627,-0.93146 1.00252,-1.73663 1.72876,-2.41553 0.72623,-0.67885 1.62613,-1.19985 2.69971,-1.56299 1.07356,-0.37888 2.32868,-0.56833 3.76538,-0.56836 1.31037,3e-5 2.47077,0.19737 3.4812,0.59204 1.02619,0.39472 1.89451,0.98676 2.60498,1.77613 0.71043,0.77362 1.25511,1.72878 1.63403,2.86547 0.37889,1.13674 0.56834,2.45502 0.56836,3.95484 l 0,9.33056 c -2e-5,0.59995 0.0237,1.13673 0.071,1.61036 0.0473,0.47363 0.12628,0.87622 0.23681,1.20776 0.12629,0.31576 0.29995,0.56047 0.521,0.73413 0.2368,0.15788 0.53676,0.23682 0.8999,0.23682 0.41046,0 0.81305,-0.0474 1.20777,-0.14209 l 0,3.59961 c -3e-5,0 -0.2921,0.0868 -0.87623,0.26049 -0.26841,0.0789 -0.52891,0.14209 -0.78149,0.18946 -0.25262,0.0474 -0.52891,0.0868 -0.82886,0.11841 -0.2842,0.0316 -0.62363,0.0474 -1.01831,0.0474 -1.37355,0 -2.39186,-0.41048 -3.05493,-1.23145 -0.64731,-0.82096 -1.03411,-2.02872 -1.1604,-3.62329 l -0.11841,0 c -0.72625,1.59457 -1.65773,2.83391 -2.79443,3.71802 -1.13673,0.88411 -2.51026,1.32617 -4.12061,1.32617 m 6.34668,-12.33813 -2.79443,0.0474 c -0.58416,0.0316 -1.13673,0.0947 -1.65772,0.18945 -0.521,0.079 -0.97885,0.26051 -1.37353,0.54468 -0.3947,0.2684 -0.71046,0.6631 -0.94727,1.18408 -0.23682,0.52101 -0.35523,1.23146 -0.35522,2.13135 -1e-5,1.21567 0.22891,2.12346 0.68677,2.72339 0.47362,0.58415 1.08934,0.87622 1.84716,0.87622 0.69466,0 1.32617,-0.18155 1.89454,-0.54468 0.58413,-0.36311 1.07355,-0.83674 1.46826,-1.4209 0.39468,-0.59992 0.69465,-1.28669 0.8999,-2.0603 0.22101,-0.77359 0.33153,-1.56298 0.33154,-2.36816 l 0,-1.30249"
               id="path8330"
               style="font-size:48.5px;font-variant:normal;font-weight:bold;font-stretch:condensed;letter-spacing:0px;fill:#a3c7e7;fill-opacity:1;font-family:Liberation Sans Narrow;-inkscape-font-specification:Liberation Sans Narrow Bold Condensed" />
            <path
               inkscape:connector-curvature="0"
               d="m 155.83801,358.15692 c -1.38933,-1e-5 -2.61288,-0.17367 -3.67065,-0.52099 -1.05779,-0.33156 -1.95769,-0.80519 -2.69971,-1.4209 -0.74203,-0.59995 -1.34196,-1.32618 -1.7998,-2.17871 -0.44206,-0.83676 -0.74203,-1.76034 -0.89991,-2.77076 l 5.44678,-0.78149 c 0.18945,1.0262 0.60782,1.83138 1.25513,2.41553 0.64729,0.58414 1.48404,0.87621 2.51025,0.87622 0.64729,-1e-5 1.23933,-0.11052 1.77613,-0.33155 0.53677,-0.22103 0.99461,-0.59993 1.37353,-1.13671 0.39468,-0.521 0.69465,-1.21566 0.8999,-2.08399 0.22102,-0.86833 0.33153,-1.94189 0.33155,-3.2207 -2e-5,0 -2e-5,-0.44995 0,-1.34985 -2e-5,-0.45785 0.008,-0.87622 0.0237,-1.25513 0.0158,-0.44206 0.0237,-0.86832 0.0237,-1.27881 l -0.0474,0 c -0.63153,1.65772 -1.52354,2.85759 -2.67603,3.59961 -1.13673,0.74202 -2.50237,1.11304 -4.09692,1.11304 -1.32618,0 -2.47079,-0.31576 -3.43384,-0.94727 -0.96306,-0.6473 -1.76823,-1.5393 -2.41553,-2.67602 -0.63151,-1.15251 -1.09725,-2.51815 -1.39722,-4.09693 -0.29996,-1.59455 -0.44995,-3.34699 -0.44995,-5.25732 0,-1.97346 0.15788,-3.75747 0.47364,-5.35205 0.33154,-1.61034 0.82885,-2.99176 1.49194,-4.14429 0.66308,-1.15248 1.49983,-2.0366 2.51025,-2.65234 1.0262,-0.63149 2.24186,-0.94724 3.64698,-0.94727 1.4051,3e-5 2.66022,0.36314 3.76538,1.08936 1.10513,0.72626 1.96556,1.90244 2.5813,3.52856 l 0.0947,0 c -10e-6,-0.33152 0.008,-0.71043 0.0237,-1.13672 0.0158,-0.44203 0.0395,-0.86041 0.071,-1.25513 0.0316,-0.41045 0.0631,-0.77357 0.0947,-1.08935 0.0316,-0.31573 0.0552,-0.52887 0.071,-0.63941 l 5.18628,0 c -0.0316,0.56839 -0.0632,1.36567 -0.0947,2.39185 -0.0158,1.02623 -0.0237,2.20241 -0.0237,3.52856 l 0,18.92164 c -2e-5,1.86295 -0.22105,3.48119 -0.66308,4.85473 -0.44208,1.38932 -1.08938,2.54182 -1.9419,3.45752 -0.83677,0.91568 -1.87876,1.60245 -3.12598,2.0603 -1.23146,0.45784 -2.63656,0.68676 -4.21533,0.68677 m 4.57056,-23.44482 c -2e-5,-1.61034 -0.13421,-2.9523 -0.40259,-4.02588 -0.25262,-1.07355 -0.59205,-1.93398 -1.01831,-2.5813 -0.4105,-0.64728 -0.88413,-1.10512 -1.4209,-1.37354 -0.53679,-0.26837 -1.07358,-0.40256 -1.61035,-0.40258 -0.69467,2e-5 -1.31829,0.16579 -1.87085,0.49731 -0.53679,0.33156 -0.99464,0.84467 -1.37353,1.53931 -0.36313,0.69468 -0.64731,1.57879 -0.85254,2.65234 -0.18946,1.07358 -0.28419,2.35239 -0.28418,3.83643 -1e-5,2.76287 0.36311,4.84685 1.08935,6.25195 0.72623,1.40512 1.80769,2.10767 3.24439,2.10767 0.53677,0 1.07355,-0.1263 1.61035,-0.37891 0.55256,-0.26839 1.04198,-0.72623 1.46826,-1.37354 0.42626,-0.66307 0.76569,-1.53929 1.01831,-2.62866 0.26838,-1.08934 0.40257,-2.46288 0.40259,-4.1206"
               id="path8332"
               style="font-size:48.5px;font-variant:normal;font-weight:bold;font-stretch:condensed;letter-spacing:0px;fill:#a3c7e7;fill-opacity:1;font-family:Liberation Sans Narrow;-inkscape-font-specification:Liberation Sans Narrow Bold Condensed" />
            <path
               inkscape:connector-curvature="0"
               d="m 179.99329,348.35272 c -1.51564,0 -2.88128,-0.26839 -4.09693,-0.80517 -1.21566,-0.55257 -2.24976,-1.38143 -3.10229,-2.48658 -0.85255,-1.12092 -1.50774,-2.51814 -1.96558,-4.19165 -0.44206,-1.68928 -0.66309,-3.66275 -0.66308,-5.92041 -1e-5,-2.44708 0.26839,-4.50738 0.80517,-6.1809 0.53678,-1.67349 1.25512,-3.02334 2.15503,-4.04957 0.91569,-1.04196 1.96557,-1.79188 3.14966,-2.24975 1.19986,-0.45782 2.46288,-0.68674 3.78906,-0.68677 1.6577,3e-5 3.07071,0.35525 4.23901,1.06568 1.16828,0.69468 2.12344,1.67352 2.86548,2.93652 0.7578,1.26304 1.31037,2.77866 1.65772,4.54687 0.3631,1.75246 0.54466,3.69435 0.54468,5.82569 l 0,0.18945 -13.47486,0 c 0,1.07358 0.071,2.0761 0.21314,3.00757 0.15787,0.9157 0.41047,1.71298 0.75781,2.39184 0.34732,0.6631 0.79727,1.19199 1.34985,1.58667 0.56835,0.37891 1.24723,0.56837 2.03662,0.56836 0.96304,10e-6 1.74454,-0.2447 2.34449,-0.73413 0.6157,-0.5052 1.04987,-1.2788 1.30249,-2.3208 l 5.13891,0.54468 c -0.23683,0.72624 -0.56838,1.49984 -0.99463,2.3208 -0.4105,0.82097 -0.96307,1.57878 -1.65771,2.27344 -0.69468,0.67887 -1.56301,1.24723 -2.60498,1.70508 -1.04201,0.44205 -2.30503,0.66308 -3.78906,0.66308 m 0,-22.37915 c -0.55259,2e-5 -1.07358,0.11843 -1.56299,0.35523 -0.48943,0.22105 -0.9157,0.58416 -1.27881,1.08935 -0.34734,0.48944 -0.63152,1.12885 -0.85254,1.91821 -0.22104,0.78941 -0.34734,1.73668 -0.37891,2.8418 l 8.17017,0 c -0.11053,-2.06818 -0.52101,-3.61538 -1.23145,-4.6416 -0.71046,-1.04197 -1.66562,-1.56297 -2.86547,-1.56299"
               id="path8334"
               style="font-size:48.5px;font-variant:normal;font-weight:bold;font-stretch:condensed;letter-spacing:0px;fill:#a3c7e7;fill-opacity:1;font-family:Liberation Sans Narrow;-inkscape-font-specification:Liberation Sans Narrow Bold Condensed" />
            <path
               inkscape:connector-curvature="0"
               d="m 211.25305,340.39569 c -2e-5,1.23145 -0.21315,2.33659 -0.6394,3.31543 -0.4105,0.97884 -1.01833,1.8156 -1.82349,2.51025 -0.80519,0.67888 -1.79193,1.20777 -2.9602,1.58667 -1.15252,0.36312 -2.47869,0.54468 -3.97852,0.54468 -1.32618,0 -2.52605,-0.11841 -3.59961,-0.35522 -1.07357,-0.23682 -2.02084,-0.62362 -2.8418,-1.1604 -0.80518,-0.55257 -1.48405,-1.26302 -2.03662,-2.13135 -0.53678,-0.86832 -0.93937,-1.94189 -1.20776,-3.2207 l 4.80737,-0.87622 c 0.15787,0.71045 0.37101,1.2867 0.63941,1.72876 0.26838,0.44206 0.59992,0.78149 0.99463,1.01831 0.41047,0.23682 0.8841,0.39469 1.42089,0.47363 0.53678,0.0789 1.14461,0.11841 1.82349,0.11841 0.61571,0 1.19196,-0.0395 1.72876,-0.11841 0.55256,-0.0947 1.02619,-0.24471 1.4209,-0.44995 0.39468,-0.22103 0.70254,-0.52099 0.92358,-0.8999 0.22102,-0.39469 0.33153,-0.88411 0.33155,-1.46827 -2e-5,-0.66307 -0.16579,-1.18407 -0.49732,-1.56298 -0.31577,-0.39469 -0.74993,-0.71044 -1.30249,-0.94727 -0.5368,-0.25259 -1.18409,-0.46573 -1.94189,-0.6394 -0.74204,-0.18945 -1.53143,-0.40258 -2.36817,-0.63941 -0.88412,-0.2368 -1.75245,-0.52098 -2.60498,-0.85254 -0.85254,-0.33153 -1.61825,-0.78148 -2.29712,-1.34985 -0.66309,-0.56835 -1.20776,-1.28669 -1.63403,-2.15503 -0.41048,-0.8841 -0.61573,-1.99714 -0.61572,-3.33911 -1e-5,-1.21564 0.19734,-2.2971 0.59204,-3.24439 0.39469,-0.96303 0.96305,-1.7761 1.70508,-2.43921 0.7578,-0.67884 1.68928,-1.19195 2.79443,-1.5393 1.10513,-0.3631 2.37605,-0.54465 3.81274,-0.54468 1.13671,3e-5 2.19449,0.13422 3.17334,0.40259 0.99462,0.25263 1.87873,0.66311 2.65235,1.23144 0.77358,0.5526 1.42088,1.26305 1.94189,2.13135 0.53677,0.86835 0.90778,1.91823 1.11304,3.14966 l -4.85474,0.61572 c -0.0947,-0.6157 -0.26051,-1.12091 -0.49731,-1.51562 -0.22104,-0.41046 -0.50522,-0.73411 -0.85254,-0.97095 -0.33156,-0.2368 -0.72625,-0.39467 -1.18408,-0.47363 -0.45786,-0.0947 -0.95517,-0.14207 -1.49195,-0.14209 -1.2946,2e-5 -2.26555,0.20526 -2.91284,0.61572 -0.6473,0.39471 -0.97095,1.06569 -0.97095,2.01294 0,0.58416 0.1263,1.0499 0.37891,1.39722 0.26838,0.34734 0.64729,0.63942 1.13672,0.87622 0.48941,0.22104 1.06566,0.41839 1.72876,0.59204 0.66307,0.15789 1.38931,0.35524 2.17871,0.59204 0.97883,0.25262 1.93399,0.55258 2.86548,0.8999 0.94725,0.33156 1.784,0.7973 2.51025,1.39722 0.74201,0.58416 1.33405,1.34197 1.77613,2.27343 0.44203,0.93149 0.66306,2.11557 0.66308,3.55225"
               id="path8336"
               style="font-size:48.5px;font-variant:normal;font-weight:bold;font-stretch:condensed;letter-spacing:0px;fill:#a3c7e7;fill-opacity:1;font-family:Liberation Sans Narrow;-inkscape-font-specification:Liberation Sans Narrow Bold Condensed" />
            <path
               inkscape:connector-curvature="0"
               d="m 232.16394,348.30536 c -1.61036,0 -2.8497,-0.52889 -3.71802,-1.58667 -0.85254,-1.07357 -1.27881,-2.69181 -1.27881,-4.85474 l 0,-15.10888 -2.67602,0 0,-4.49952 2.93652,0 1.70508,-6.01513 3.43384,0 0,6.01513 3.97851,0 0,4.49952 -3.97851,0 0,13.30908 c -1e-5,1.24724 0.18944,2.17082 0.56836,2.77075 0.39468,0.58415 0.99462,0.87622 1.7998,0.87622 0.33153,0 0.6315,-0.0316 0.8999,-0.0947 0.28417,-0.0631 0.59993,-0.14208 0.94727,-0.23681 l 0,4.1206 c -0.67889,0.2684 -1.39723,0.46574 -2.15503,0.59204 -0.74203,0.14209 -1.563,0.21314 -2.46289,0.21314"
               id="path8338"
               style="font-size:48.5px;font-variant:normal;font-weight:bold;font-stretch:condensed;letter-spacing:0px;fill:#a3c7e7;fill-opacity:1;font-family:Liberation Sans Narrow;-inkscape-font-specification:Liberation Sans Narrow Bold Condensed" />
            <path
               inkscape:connector-curvature="0"
               d="m 245.42566,327.37079 c 0.74202,-1.95766 1.6656,-3.37856 2.77075,-4.2627 1.12092,-0.88409 2.45498,-1.32614 4.0022,-1.32617 1.263,3e-5 2.32868,0.25263 3.19702,0.75781 0.8841,0.50524 1.60244,1.1999 2.15503,2.08399 0.55255,0.88414 0.94724,1.92613 1.18408,3.12597 0.25258,1.19989 0.37889,2.49449 0.37891,3.88379 l 0,16.24561 -5.44678,0 0,-14.35107 c -2e-5,-0.99462 -0.0632,-1.90241 -0.18945,-2.72339 -0.12632,-0.83674 -0.33946,-1.54719 -0.63941,-2.13135 -0.29998,-0.59992 -0.69467,-1.06565 -1.18408,-1.39722 -0.47365,-0.33152 -1.0499,-0.49729 -1.72876,-0.49731 -0.6631,2e-5 -1.26303,0.18158 -1.7998,0.54468 -0.5368,0.34735 -1.00254,0.85255 -1.39722,1.51562 -0.37892,0.64732 -0.67888,1.42881 -0.8999,2.34448 -0.20525,0.89992 -0.30787,1.89455 -0.30786,2.98389 l 0,13.71167 -5.47046,0 0,-35.14356 5.47046,0 0,9.59107 c -1e-5,0.50523 -0.008,1.01833 -0.0237,1.53931 -0.0158,0.50523 -0.0316,0.98675 -0.0474,1.44458 -0.0158,0.44208 -0.0316,0.84466 -0.0474,1.20776 -0.0158,0.36314 -0.0316,0.64732 -0.0474,0.85254 l 0.071,0"
               id="path8340"
               style="font-size:48.5px;font-variant:normal;font-weight:bold;font-stretch:condensed;letter-spacing:0px;fill:#a3c7e7;fill-opacity:1;font-family:Liberation Sans Narrow;-inkscape-font-specification:Liberation Sans Narrow Bold Condensed" />
            <path
               inkscape:connector-curvature="0"
               d="m 273.01477,348.35272 c -1.51563,0 -2.88127,-0.26839 -4.09692,-0.80517 -1.21567,-0.55257 -2.24976,-1.38143 -3.1023,-2.48658 -0.85254,-1.12092 -1.50773,-2.51814 -1.96557,-4.19165 -0.44206,-1.68928 -0.66309,-3.66275 -0.66309,-5.92041 0,-2.44708 0.26839,-4.50738 0.80518,-6.1809 0.53678,-1.67349 1.25512,-3.02334 2.15502,-4.04957 0.91569,-1.04196 1.96557,-1.79188 3.14966,-2.24975 1.19986,-0.45782 2.46288,-0.68674 3.78907,-0.68677 1.6577,3e-5 3.0707,0.35525 4.23901,1.06568 1.16828,0.69468 2.12344,1.67352 2.86548,2.93652 0.75779,1.26304 1.31036,2.77866 1.65771,4.54687 0.3631,1.75246 0.54466,3.69435 0.54468,5.82569 l 0,0.18945 -13.47485,0 c -10e-6,1.07358 0.071,2.0761 0.21313,3.00757 0.15787,0.9157 0.41048,1.71298 0.75781,2.39184 0.34733,0.6631 0.79728,1.19199 1.34986,1.58667 0.56835,0.37891 1.24722,0.56837 2.03662,0.56836 0.96304,10e-6 1.74453,-0.2447 2.34448,-0.73413 0.61571,-0.5052 1.04987,-1.2788 1.30249,-2.3208 l 5.13892,0.54468 c -0.23684,0.72624 -0.56838,1.49984 -0.99463,2.3208 -0.4105,0.82097 -0.96307,1.57878 -1.65772,2.27344 -0.69468,0.67887 -1.563,1.24723 -2.60498,1.70508 -1.042,0.44205 -2.30502,0.66308 -3.78906,0.66308 m 0,-22.37915 c -0.55258,2e-5 -1.07358,0.11843 -1.56299,0.35523 -0.48943,0.22105 -0.9157,0.58416 -1.27881,1.08935 -0.34734,0.48944 -0.63151,1.12885 -0.85254,1.91821 -0.22103,0.78941 -0.34733,1.73668 -0.3789,2.8418 l 8.17016,0 c -0.11053,-2.06818 -0.52101,-3.61538 -1.23144,-4.6416 -0.71046,-1.04197 -1.66562,-1.56297 -2.86548,-1.56299"
               id="path8342"
               style="font-size:48.5px;font-variant:normal;font-weight:bold;font-stretch:condensed;letter-spacing:0px;fill:#a3c7e7;fill-opacity:1;font-family:Liberation Sans Narrow;-inkscape-font-specification:Liberation Sans Narrow Bold Condensed" />
            <path
               inkscape:connector-curvature="0"
               d="m 302.49841,348.35272 c -1.01042,0 -1.91822,-0.16577 -2.72339,-0.49731 -0.78939,-0.34733 -1.46037,-0.84465 -2.01294,-1.49195 -0.55257,-0.66308 -0.97884,-1.47615 -1.2788,-2.4392 -0.29997,-0.96305 -0.44996,-2.0603 -0.44995,-3.29175 -10e-6,-1.51562 0.21313,-2.78653 0.6394,-3.81275 0.44205,-1.04198 1.03409,-1.87873 1.77612,-2.51025 0.75781,-0.64728 1.64192,-1.11302 2.65235,-1.39722 1.01041,-0.29995 2.08397,-0.45783 3.2207,-0.47363 l 4.52319,-0.0947 0,-1.30249 c -1e-5,-0.93146 -0.0711,-1.70506 -0.21313,-2.3208 -0.12632,-0.63149 -0.32366,-1.14459 -0.59204,-1.5393 -0.25262,-0.39468 -0.56837,-0.67096 -0.94727,-0.82886 -0.37892,-0.17365 -0.81308,-0.26048 -1.30249,-0.2605 -0.45785,2e-5 -0.86834,0.0553 -1.23144,0.16577 -0.34734,0.11054 -0.65521,0.30788 -0.92359,0.59204 -0.25261,0.26842 -0.45785,0.63943 -0.61572,1.11304 -0.15789,0.45786 -0.2684,1.04201 -0.33154,1.75244 l -5.70728,-0.33154 c 0.15788,-1.12091 0.44206,-2.13922 0.85254,-3.05493 0.42627,-0.93146 1.00252,-1.73663 1.72876,-2.41553 0.72623,-0.67885 1.62613,-1.19985 2.69971,-1.56299 1.07356,-0.37888 2.32868,-0.56833 3.76538,-0.56836 1.31037,3e-5 2.47077,0.19737 3.4812,0.59204 1.02619,0.39472 1.89451,0.98676 2.60498,1.77613 0.71043,0.77362 1.25511,1.72878 1.63403,2.86547 0.37889,1.13674 0.56834,2.45502 0.56836,3.95484 l 0,9.33056 c -2e-5,0.59995 0.0237,1.13673 0.0711,1.61036 0.0473,0.47363 0.12628,0.87622 0.23681,1.20776 0.12629,0.31576 0.29995,0.56047 0.521,0.73413 0.2368,0.15788 0.53676,0.23682 0.8999,0.23682 0.41046,0 0.81305,-0.0474 1.20777,-0.14209 l 0,3.59961 c -3e-5,0 -0.2921,0.0868 -0.87623,0.26049 -0.26841,0.0789 -0.52891,0.14209 -0.78149,0.18946 -0.25262,0.0474 -0.52891,0.0868 -0.82886,0.11841 -0.2842,0.0316 -0.62363,0.0474 -1.01831,0.0474 -1.37355,0 -2.39186,-0.41048 -3.05493,-1.23145 -0.64731,-0.82096 -1.03411,-2.02872 -1.1604,-3.62329 l -0.11841,0 c -0.72625,1.59457 -1.65773,2.83391 -2.79443,3.71802 -1.13673,0.88411 -2.51026,1.32617 -4.12061,1.32617 m 6.34668,-12.33813 -2.79443,0.0474 c -0.58416,0.0316 -1.13673,0.0947 -1.65772,0.18945 -0.521,0.079 -0.97885,0.26051 -1.37353,0.54468 -0.3947,0.2684 -0.71046,0.6631 -0.94727,1.18408 -0.23682,0.52101 -0.35523,1.23146 -0.35522,2.13135 -1e-5,1.21567 0.22891,2.12346 0.68677,2.72339 0.47362,0.58415 1.08934,0.87622 1.84716,0.87622 0.69466,0 1.32617,-0.18155 1.89454,-0.54468 0.58413,-0.36311 1.07355,-0.83674 1.46826,-1.4209 0.39468,-0.59992 0.69465,-1.28669 0.8999,-2.0603 0.22101,-0.77359 0.33153,-1.56298 0.33154,-2.36816 l 0,-1.30249"
               id="path8344"
               style="font-size:48.5px;font-variant:normal;font-weight:bold;font-stretch:condensed;letter-spacing:0px;fill:#a3c7e7;fill-opacity:1;font-family:Liberation Sans Narrow;-inkscape-font-specification:Liberation Sans Narrow Bold Condensed" />
            <path
               inkscape:connector-curvature="0"
               d="m 342.54407,347.87909 -5.75464,0 -3.36279,-15.62988 c -0.11053,-0.48941 -0.21316,-1.03409 -0.30787,-1.63404 -0.0947,-0.6157 -0.18946,-1.19195 -0.28418,-1.72876 l -0.30786,-1.89453 c -0.11053,0.63153 -0.22893,1.26304 -0.35522,1.89453 -0.11053,0.53681 -0.22104,1.11306 -0.33154,1.72876 -0.11053,0.61574 -0.22105,1.17621 -0.33155,1.6814 l -3.38647,15.58252 -5.75464,0 -5.44678,-25.62354 5.13892,0 2.65234,15.06153 c 0.0789,0.42628 0.15787,0.89991 0.23682,1.4209 l 0.2605,1.49194 c 0.0947,0.53679 0.19734,1.07357 0.30786,1.61035 0.0947,-0.59993 0.18155,-1.18407 0.2605,-1.75244 0.0789,-0.48941 0.16576,-0.98673 0.26049,-1.49194 l 0.23682,-1.27881 3.29175,-15.06153 5.84936,0 3.22071,15.06153 c 0.0947,0.41049 0.18943,0.87623 0.28418,1.39721 l 0.26049,1.46827 c 0.0947,0.53679 0.18154,1.08936 0.2605,1.65771 0.11049,-0.56835 0.20522,-1.12092 0.28418,-1.65771 -2e-5,0 0.0868,-0.48942 0.2605,-1.46827 l 0.2605,-1.39721 2.77075,-15.06153 5.04419,0 -5.51782,25.62354"
               id="path8346"
               style="font-size:48.5px;font-variant:normal;font-weight:bold;font-stretch:condensed;letter-spacing:0px;fill:#a3c7e7;fill-opacity:1;font-family:Liberation Sans Narrow;-inkscape-font-specification:Liberation Sans Narrow Bold Condensed" />
            <path
               inkscape:connector-curvature="0"
               d="m 359.4054,348.35272 c -1.51564,0 -2.88128,-0.26839 -4.09693,-0.80517 -1.21566,-0.55257 -2.24976,-1.38143 -3.10229,-2.48658 -0.85255,-1.12092 -1.50774,-2.51814 -1.96558,-4.19165 -0.44206,-1.68928 -0.66309,-3.66275 -0.66309,-5.92041 0,-2.44708 0.26839,-4.50738 0.80518,-6.1809 0.53678,-1.67349 1.25512,-3.02334 2.15503,-4.04957 0.91568,-1.04196 1.96557,-1.79188 3.14966,-2.24975 1.19986,-0.45782 2.46288,-0.68674 3.78906,-0.68677 1.6577,3e-5 3.07071,0.35525 4.23901,1.06568 1.16828,0.69468 2.12344,1.67352 2.86548,2.93652 0.7578,1.26304 1.31037,2.77866 1.65772,4.54687 0.3631,1.75246 0.54465,3.69435 0.54468,5.82569 l 0,0.18945 -13.47486,0 c -10e-6,1.07358 0.071,2.0761 0.21314,3.00757 0.15787,0.9157 0.41047,1.71298 0.75781,2.39184 0.34732,0.6631 0.79727,1.19199 1.34985,1.58667 0.56835,0.37891 1.24722,0.56837 2.03662,0.56836 0.96304,10e-6 1.74454,-0.2447 2.34449,-0.73413 0.6157,-0.5052 1.04987,-1.2788 1.30249,-2.3208 l 5.13891,0.54468 c -0.23683,0.72624 -0.56838,1.49984 -0.99463,2.3208 -0.4105,0.82097 -0.96307,1.57878 -1.65771,2.27344 -0.69468,0.67887 -1.56301,1.24723 -2.60498,1.70508 -1.04201,0.44205 -2.30503,0.66308 -3.78906,0.66308 m 0,-22.37915 c -0.55259,2e-5 -1.07358,0.11843 -1.56299,0.35523 -0.48943,0.22105 -0.9157,0.58416 -1.27881,1.08935 -0.34734,0.48944 -0.63152,1.12885 -0.85254,1.91821 -0.22104,0.78941 -0.34734,1.73668 -0.37891,2.8418 l 8.17017,0 c -0.11053,-2.06818 -0.52101,-3.61538 -1.23145,-4.6416 -0.71046,-1.04197 -1.66562,-1.56297 -2.86547,-1.56299"
               id="path8348"
               style="font-size:48.5px;font-variant:normal;font-weight:bold;font-stretch:condensed;letter-spacing:0px;fill:#a3c7e7;fill-opacity:1;font-family:Liberation Sans Narrow;-inkscape-font-specification:Liberation Sans Narrow Bold Condensed" />
            <path
               inkscape:connector-curvature="0"
               d="m 390.66516,340.39569 c -2e-5,1.23145 -0.21315,2.33659 -0.6394,3.31543 -0.4105,0.97884 -1.01833,1.8156 -1.82349,2.51025 -0.80519,0.67888 -1.79193,1.20777 -2.9602,1.58667 -1.15252,0.36312 -2.4787,0.54468 -3.97852,0.54468 -1.32618,0 -2.52605,-0.11841 -3.59961,-0.35522 -1.07357,-0.23682 -2.02084,-0.62362 -2.8418,-1.1604 -0.80518,-0.55257 -1.48405,-1.26302 -2.03662,-2.13135 -0.53678,-0.86832 -0.93937,-1.94189 -1.20776,-3.2207 l 4.80737,-0.87622 c 0.15787,0.71045 0.37101,1.2867 0.63941,1.72876 0.26838,0.44206 0.59992,0.78149 0.99463,1.01831 0.41047,0.23682 0.8841,0.39469 1.42089,0.47363 0.53678,0.0789 1.14461,0.11841 1.82349,0.11841 0.61571,0 1.19196,-0.0395 1.72876,-0.11841 0.55256,-0.0947 1.02619,-0.24471 1.4209,-0.44995 0.39468,-0.22103 0.70254,-0.52099 0.92358,-0.8999 0.22102,-0.39469 0.33153,-0.88411 0.33154,-1.46827 -1e-5,-0.66307 -0.16578,-1.18407 -0.49731,-1.56298 -0.31577,-0.39469 -0.74993,-0.71044 -1.30249,-0.94727 -0.5368,-0.25259 -1.18409,-0.46573 -1.94189,-0.6394 -0.74204,-0.18945 -1.53143,-0.40258 -2.36817,-0.63941 -0.88412,-0.2368 -1.75245,-0.52098 -2.60498,-0.85254 -0.85254,-0.33153 -1.61825,-0.78148 -2.29712,-1.34985 -0.66309,-0.56835 -1.20776,-1.28669 -1.63403,-2.15503 -0.41049,-0.8841 -0.61573,-1.99714 -0.61572,-3.33911 -10e-6,-1.21564 0.19734,-2.2971 0.59204,-3.24439 0.39469,-0.96303 0.96305,-1.7761 1.70508,-2.43921 0.7578,-0.67884 1.68928,-1.19195 2.79443,-1.5393 1.10513,-0.3631 2.37605,-0.54465 3.81274,-0.54468 1.13671,3e-5 2.19449,0.13422 3.17334,0.40259 0.99462,0.25263 1.87873,0.66311 2.65235,1.23144 0.77358,0.5526 1.42088,1.26305 1.94189,2.13135 0.53677,0.86835 0.90778,1.91823 1.11304,3.14966 l -4.85474,0.61572 c -0.0947,-0.6157 -0.26051,-1.12091 -0.49731,-1.51562 -0.22105,-0.41046 -0.50522,-0.73411 -0.85254,-0.97095 -0.33156,-0.2368 -0.72625,-0.39467 -1.18408,-0.47363 -0.45786,-0.0947 -0.95517,-0.14207 -1.49195,-0.14209 -1.2946,2e-5 -2.26555,0.20526 -2.91284,0.61572 -0.6473,0.39471 -0.97095,1.06569 -0.97095,2.01294 0,0.58416 0.1263,1.0499 0.37891,1.39722 0.26838,0.34734 0.64729,0.63942 1.13672,0.87622 0.48941,0.22104 1.06566,0.41839 1.72876,0.59204 0.66307,0.15789 1.38931,0.35524 2.17871,0.59204 0.97883,0.25262 1.93399,0.55258 2.86548,0.8999 0.94725,0.33156 1.784,0.7973 2.51025,1.39722 0.74201,0.58416 1.33405,1.34197 1.77613,2.27343 0.44203,0.93149 0.66306,2.11557 0.66308,3.55225"
               id="path8350"
               style="font-size:48.5px;font-variant:normal;font-weight:bold;font-stretch:condensed;letter-spacing:0px;fill:#a3c7e7;fill-opacity:1;font-family:Liberation Sans Narrow;-inkscape-font-specification:Liberation Sans Narrow Bold Condensed" />
            <path
               inkscape:connector-curvature="0"
               d="m 415.08093,335.04364 c -2e-5,1.95769 -0.22105,3.7496 -0.66308,5.37573 -0.44208,1.62615 -1.11306,3.03126 -2.01294,4.21533 -0.88414,1.1683 -1.99717,2.08399 -3.33911,2.74707 -1.32619,0.6473 -2.88128,0.97095 -4.66529,0.97095 -1.70509,0 -3.21282,-0.32365 -4.52319,-0.97095 -1.31039,-0.64729 -2.40764,-1.55509 -3.29175,-2.72338 -0.88412,-1.16829 -1.5551,-2.56551 -2.01294,-4.19165 -0.44206,-1.64192 -0.66309,-3.44962 -0.66308,-5.4231 -1e-5,-1.9103 0.21313,-3.67064 0.6394,-5.28101 0.44205,-1.62612 1.09725,-3.03122 1.96558,-4.21533 0.88411,-1.18406 1.98925,-2.10764 3.31543,-2.77075 1.34195,-0.66306 2.90493,-0.9946 4.68896,-0.99463 1.89452,3e-5 3.50487,0.33157 4.83106,0.99463 1.34194,0.66311 2.43129,1.58669 3.26806,2.77075 0.85252,1.16832 1.47614,2.56553 1.87085,4.19165 0.39467,1.61037 0.59202,3.3786 0.59204,5.30469 m -5.70727,0 c -2e-5,-3.04702 -0.4105,-5.25731 -1.23145,-6.63086 -0.80519,-1.37351 -1.98138,-2.06028 -3.52856,-2.0603 -1.61036,2e-5 -2.84181,0.69468 -3.69434,2.08398 -0.85255,1.38934 -1.27881,3.59173 -1.27881,6.60718 0,1.53142 0.11051,2.8497 0.33155,3.95483 0.22102,1.10516 0.53677,2.01295 0.94726,2.72339 0.42626,0.71046 0.93147,1.23935 1.51563,1.58667 0.58413,0.33155 1.22354,0.49732 1.91821,0.49732 0.80516,0 1.51561,-0.16577 2.13135,-0.49732 0.63149,-0.34732 1.16038,-0.87621 1.58667,-1.58667 0.42625,-0.71044 0.7499,-1.61823 0.97094,-2.72339 0.22102,-1.10513 0.33153,-2.42341 0.33155,-3.95483"
               id="path8352"
               style="font-size:48.5px;font-variant:normal;font-weight:bold;font-stretch:condensed;letter-spacing:0px;fill:#a3c7e7;fill-opacity:1;font-family:Liberation Sans Narrow;-inkscape-font-specification:Liberation Sans Narrow Bold Condensed" />
            <path
               inkscape:connector-curvature="0"
               d="m 431.84753,347.87909 0,-14.37476 c -1e-5,-0.99461 -0.0553,-1.90241 -0.16577,-2.72339 -0.11053,-0.83673 -0.29209,-1.54718 -0.54468,-2.13134 -0.25261,-0.59992 -0.58416,-1.06566 -0.99462,-1.39722 -0.4105,-0.33152 -0.90781,-0.49729 -1.49195,-0.49731 -0.55258,2e-5 -1.05779,0.18158 -1.51562,0.54467 -0.45786,0.34735 -0.85255,0.85256 -1.18408,1.51563 -0.31577,0.64732 -0.56837,1.42881 -0.75782,2.34448 -0.17367,0.89992 -0.2605,1.89455 -0.26049,2.98389 l 0,13.73535 -5.47046,0 0,-19.89258 c -10e-6,-0.55255 -0.008,-1.12091 -0.0237,-1.70508 0,-0.58412 -0.008,-1.13669 -0.0237,-1.65771 -0.0158,-0.53676 -0.0316,-1.01039 -0.0474,-1.4209 -0.0158,-0.42624 -0.0316,-0.742 -0.0474,-0.94727 l 5.18628,0 c 0.0316,0.18948 0.0552,0.49734 0.071,0.92359 0.0316,0.4105 0.0631,0.86835 0.0947,1.37353 0.0316,0.50523 0.0553,1.01044 0.071,1.51563 0.0158,0.50523 0.0237,0.9315 0.0237,1.27881 l 0.071,0 c 0.67886,-1.95766 1.51561,-3.37856 2.51025,-4.2627 1.01041,-0.88409 2.21817,-1.32614 3.62329,-1.32617 1.61034,3e-5 2.89704,0.48155 3.86011,1.44458 0.97882,0.94729 1.63401,2.32872 1.96558,4.14429 l 0.11841,0 c 0.37888,-1.05776 0.78147,-1.94188 1.20776,-2.65235 0.44203,-0.71042 0.92356,-1.27878 1.44458,-1.70507 0.52097,-0.44204 1.08933,-0.75779 1.70508,-0.94727 0.61569,-0.18943 1.28667,-0.28415 2.01294,-0.28418 1.15248,3e-5 2.12342,0.25263 2.91284,0.75781 0.80514,0.50524 1.45244,1.1999 1.94189,2.08399 0.50518,0.88413 0.8683,1.92612 1.08936,3.12597 0.23678,1.19989 0.35519,2.49449 0.35522,3.88379 l 0,16.26929 -5.42309,0 0,-14.37476 c -3e-5,-0.99461 -0.0553,-1.90241 -0.16577,-2.72339 -0.11055,-0.83673 -0.2921,-1.54718 -0.54468,-2.13134 -0.25263,-0.59992 -0.58418,-1.06566 -0.99463,-1.39722 -0.39472,-0.33152 -0.88414,-0.49729 -1.46826,-0.49731 -0.53681,2e-5 -1.03412,0.17368 -1.49195,0.52099 -0.44208,0.33157 -0.82888,0.81309 -1.1604,1.44458 -0.33156,0.61574 -0.59206,1.35777 -0.78149,2.22608 -0.17369,0.86834 -0.27631,1.83139 -0.30786,2.88916 l 0,14.04321 -5.39942,0"
               id="path8354"
               style="font-size:48.5px;font-variant:normal;font-weight:bold;font-stretch:condensed;letter-spacing:0px;fill:#a3c7e7;fill-opacity:1;font-family:Liberation Sans Narrow;-inkscape-font-specification:Liberation Sans Narrow Bold Condensed" />
            <path
               inkscape:connector-curvature="0"
               d="m 463.41516,348.35272 c -1.51563,0 -2.88127,-0.26839 -4.09692,-0.80517 -1.21567,-0.55257 -2.24976,-1.38143 -3.1023,-2.48658 -0.85254,-1.12092 -1.50773,-2.51814 -1.96557,-4.19165 -0.44206,-1.68928 -0.66309,-3.66275 -0.66309,-5.92041 0,-2.44708 0.26839,-4.50738 0.80518,-6.1809 0.53678,-1.67349 1.25512,-3.02334 2.15503,-4.04957 0.91568,-1.04196 1.96557,-1.79188 3.14965,-2.24975 1.19986,-0.45782 2.46288,-0.68674 3.78907,-0.68677 1.6577,3e-5 3.0707,0.35525 4.23901,1.06568 1.16828,0.69468 2.12344,1.67352 2.86548,2.93652 0.75779,1.26304 1.31036,2.77866 1.65771,4.54687 0.3631,1.75246 0.54466,3.69435 0.54468,5.82569 l 0,0.18945 -13.47485,0 c -10e-6,1.07358 0.071,2.0761 0.21313,3.00757 0.15787,0.9157 0.41048,1.71298 0.75781,2.39184 0.34733,0.6631 0.79728,1.19199 1.34986,1.58667 0.56835,0.37891 1.24722,0.56837 2.03662,0.56836 0.96304,10e-6 1.74453,-0.2447 2.34448,-0.73413 0.61571,-0.5052 1.04987,-1.2788 1.30249,-2.3208 l 5.13892,0.54468 c -0.23684,0.72624 -0.56838,1.49984 -0.99463,2.3208 -0.4105,0.82097 -0.96307,1.57878 -1.65772,2.27344 -0.69467,0.67887 -1.563,1.24723 -2.60498,1.70508 -1.042,0.44205 -2.30502,0.66308 -3.78906,0.66308 m 0,-22.37915 c -0.55258,2e-5 -1.07358,0.11843 -1.56299,0.35523 -0.48943,0.22105 -0.9157,0.58416 -1.27881,1.08935 -0.34733,0.48944 -0.63151,1.12885 -0.85253,1.91821 -0.22104,0.78941 -0.34734,1.73668 -0.37891,2.8418 l 8.17016,0 c -0.11052,-2.06818 -0.52101,-3.61538 -1.23144,-4.6416 -0.71046,-1.04197 -1.66562,-1.56297 -2.86548,-1.56299"
               id="path8356"
               style="font-size:48.5px;font-variant:normal;font-weight:bold;font-stretch:condensed;letter-spacing:0px;fill:#a3c7e7;fill-opacity:1;font-family:Liberation Sans Narrow;-inkscape-font-specification:Liberation Sans Narrow Bold Condensed" />
          </g>
        </g>
        <g
           style="font-size:48px;font-style:normal;font-variant:normal;font-weight:normal;font-stretch:normal;line-height:125%;letter-spacing:-2px;word-spacing:0px;fill:#fffffa;fill-opacity:1;stroke:none;font-family:Liberation Mono;-inkscape-font-specification:Liberation Mono"
           id="text5318"
           transform="matrix(0.42972462,-0.11514437,0.11514437,0.42972462,157.0645,32.82633)">
          <path
             style="font-size:48.5px;font-weight:bold;font-stretch:condensed;letter-spacing:0px;fill:#fffffa;fill-opacity:1;font-family:Liberation Sans Narrow;-inkscape-font-specification:Liberation Sans Narrow Bold Condensed"
             id="path8265"
             d="m 230.89441,389.64651 -11.91187,-25.69458 c 0.0632,0.69469 0.1263,1.38935 0.18946,2.08399 0.0473,0.59996 0.0868,1.24725 0.11841,1.94189 0.0316,0.69469 0.0473,1.35777 0.0474,1.98926 l 0,19.67944 -5.09155,0 0,-33.36743 6.53613,0 12.10132,25.90772 c -0.0632,-0.66308 -0.11843,-1.35774 -0.16577,-2.08399 -0.0474,-0.61571 -0.0947,-1.31037 -0.14209,-2.08398 -0.0316,-0.77359 -0.0474,-1.55508 -0.0474,-2.34448 l 0,-19.39527 5.09156,0 0,33.36743 -6.72559,0"
             inkscape:connector-curvature="0" />
          <path
             style="font-size:48.5px;font-weight:bold;font-stretch:condensed;letter-spacing:0px;fill:#fffffa;fill-opacity:1;font-family:Liberation Sans Narrow;-inkscape-font-specification:Liberation Sans Narrow Bold Condensed"
             id="path8267"
             d="m 243.06677,359.40506 0,-4.9021 5.47046,0 0,4.9021 -5.47046,0 m 0,30.24145 0,-25.62353 5.47046,0 0,25.62353 -5.47046,0"
             inkscape:connector-curvature="0" />
          <path
             style="font-size:48.5px;font-weight:bold;font-stretch:condensed;letter-spacing:0px;fill:#fffffa;fill-opacity:1;font-family:Liberation Sans Narrow;-inkscape-font-specification:Liberation Sans Narrow Bold Condensed"
             id="path8269"
             d="m 262.95935,399.92435 c -1.38933,-1e-5 -2.61288,-0.17368 -3.67065,-0.521 -1.05779,-0.33155 -1.95769,-0.80518 -2.69971,-1.4209 -0.74203,-0.59994 -1.34196,-1.32618 -1.79981,-2.17871 -0.44206,-0.83676 -0.74202,-1.76034 -0.8999,-2.77075 l 5.44678,-0.78149 c 0.18944,1.0262 0.60782,1.83137 1.25513,2.41552 0.64728,0.58414 1.48404,0.87622 2.51025,0.87622 0.64729,0 1.23933,-0.11052 1.77612,-0.33154 0.53677,-0.22103 0.99462,-0.59994 1.37354,-1.13672 0.39468,-0.521 0.69464,-1.21566 0.8999,-2.08398 0.22101,-0.86833 0.33153,-1.9419 0.33154,-3.22071 -10e-6,1e-5 -10e-6,-0.44995 0,-1.34985 -10e-6,-0.45784 0.008,-0.87622 0.0237,-1.25513 0.0158,-0.44205 0.0237,-0.86832 0.0237,-1.2788 l -0.0474,0 c -0.63152,1.65771 -1.52353,2.85758 -2.67602,3.5996 -1.13673,0.74203 -2.50237,1.11304 -4.09693,1.11304 -1.32618,0 -2.47079,-0.31575 -3.43383,-0.94726 -0.96306,-0.6473 -1.76824,-1.53931 -2.41553,-2.67603 -0.63151,-1.1525 -1.09725,-2.51814 -1.39722,-4.09692 -0.29997,-1.59456 -0.44995,-3.347 -0.44995,-5.25733 0,-1.97345 0.15788,-3.75747 0.47363,-5.35205 0.33154,-1.61033 0.82886,-2.99176 1.49195,-4.14429 0.66308,-1.15248 1.49983,-2.03659 2.51025,-2.65234 1.0262,-0.63148 2.24186,-0.94724 3.64697,-0.94726 1.4051,2e-5 2.66023,0.36314 3.76539,1.08935 1.10512,0.72626 1.96556,1.90245 2.58129,3.52857 l 0.0947,0 c -2e-5,-0.33153 0.008,-0.71043 0.0237,-1.13672 0.0158,-0.44204 0.0395,-0.86041 0.0711,-1.25513 0.0316,-0.41046 0.0631,-0.77358 0.0947,-1.08936 0.0316,-0.31573 0.0552,-0.52886 0.071,-0.6394 l 5.18628,0 c -0.0316,0.56838 -0.0632,1.36567 -0.0947,2.39185 -0.0158,1.02622 -0.0237,2.20241 -0.0237,3.52856 l 0,18.92163 c -2e-5,1.86296 -0.22105,3.4812 -0.66309,4.85474 -0.44207,1.38931 -1.08937,2.54182 -1.94189,3.45752 -0.83677,0.91568 -1.87876,1.60245 -3.12598,2.0603 -1.23146,0.45783 -2.63657,0.68676 -4.21533,0.68677 m 4.57056,-23.44483 c -2e-5,-1.61033 -0.13421,-2.95229 -0.40259,-4.02588 -0.25262,-1.07355 -0.59206,-1.93398 -1.01831,-2.5813 -0.4105,-0.64727 -0.88413,-1.10512 -1.4209,-1.37353 -0.5368,-0.26837 -1.07358,-0.40257 -1.61035,-0.40259 -0.69467,2e-5 -1.31829,0.16579 -1.87085,0.49732 -0.53679,0.33156 -0.99464,0.84466 -1.37354,1.5393 -0.36312,0.69468 -0.6473,1.5788 -0.85254,2.65235 -0.18946,1.07358 -0.28418,2.35239 -0.28417,3.83642 -10e-6,2.76287 0.36311,4.84685 1.08935,6.25196 0.72623,1.40511 1.80769,2.10767 3.24439,2.10766 0.53677,1e-5 1.07355,-0.1263 1.61035,-0.3789 0.55255,-0.26839 1.04197,-0.72624 1.46826,-1.37354 0.42625,-0.66308 0.76569,-1.5393 1.01831,-2.62866 0.26838,-1.08935 0.40257,-2.46288 0.40259,-4.12061"
             inkscape:connector-curvature="0" />
          <path
             style="font-size:48.5px;font-weight:bold;font-stretch:condensed;letter-spacing:0px;fill:#fffffa;fill-opacity:1;font-family:Liberation Sans Narrow;-inkscape-font-specification:Liberation Sans Narrow Bold Condensed"
             id="path8271"
             d="m 283.87024,369.13821 c 0.74202,-1.95766 1.6656,-3.37855 2.77075,-4.26269 1.12092,-0.88409 2.45498,-1.32615 4.0022,-1.32617 1.263,2e-5 2.32868,0.25263 3.19702,0.75781 0.8841,0.50523 1.60244,1.19989 2.15503,2.08398 0.55255,0.88414 0.94724,1.92613 1.18408,3.12598 0.25258,1.19989 0.37889,2.49448 0.37891,3.88379 l 0,16.2456 -5.44678,0 0,-14.35107 c -2e-5,-0.99461 -0.0632,-1.90241 -0.18945,-2.72339 -0.12632,-0.83673 -0.33946,-1.54718 -0.63941,-2.13135 -0.29998,-0.59991 -0.69467,-1.06565 -1.18408,-1.39721 -0.47365,-0.33152 -1.0499,-0.4973 -1.72876,-0.49732 -0.6631,2e-5 -1.26303,0.18158 -1.7998,0.54468 -0.5368,0.34735 -1.00254,0.85256 -1.39722,1.51563 -0.37892,0.64731 -0.67888,1.42881 -0.8999,2.34448 -0.20525,0.89992 -0.30787,1.89454 -0.30786,2.98388 l 0,13.71167 -5.47046,0 0,-35.14355 5.47046,0 0,9.59106 c -10e-6,0.50524 -0.008,1.01834 -0.0237,1.53931 -0.0158,0.50523 -0.0316,0.98676 -0.0474,1.44458 -0.0158,0.44208 -0.0316,0.84467 -0.0474,1.20777 -0.0158,0.36313 -0.0316,0.64731 -0.0474,0.85253 l 0.0711,0"
             inkscape:connector-curvature="0" />
          <path
             style="font-size:48.5px;font-weight:bold;font-stretch:condensed;letter-spacing:0px;fill:#fffffa;fill-opacity:1;font-family:Liberation Sans Narrow;-inkscape-font-specification:Liberation Sans Narrow Bold Condensed"
             id="path8273"
             d="m 308.21497,390.07278 c -1.61036,0 -2.8497,-0.52889 -3.71802,-1.58667 -0.85254,-1.07356 -1.27881,-2.6918 -1.27881,-4.85473 l 0,-15.10889 -2.67603,0 0,-4.49951 2.93653,0 1.70508,-6.01514 3.43383,0 0,6.01514 3.97852,0 0,4.49951 -3.97852,0 0,13.30908 c 0,1.24724 0.18945,2.17083 0.56836,2.77076 0.39469,0.58415 0.99462,0.87622 1.79981,0.87622 0.33153,0 0.6315,-0.0316 0.8999,-0.0947 0.28417,-0.0632 0.59992,-0.14209 0.94727,-0.23682 l 0,4.12061 c -0.67889,0.26839 -1.39723,0.46574 -2.15503,0.59204 -0.74204,0.14209 -1.563,0.21313 -2.46289,0.21313"
             inkscape:connector-curvature="0" />
          <path
             style="font-size:48.5px;font-weight:bold;font-stretch:condensed;letter-spacing:0px;fill:#fffffa;fill-opacity:1;font-family:Liberation Sans Narrow;-inkscape-font-specification:Liberation Sans Narrow Bold Condensed"
             id="path8275"
             d="m 347.14758,376.81107 c -2e-5,1.95769 -0.22105,3.7496 -0.66308,5.37573 -0.44208,1.62614 -1.11306,3.03125 -2.01294,4.21533 -0.88414,1.1683 -1.99717,2.08399 -3.33911,2.74707 -1.32619,0.6473 -2.88128,0.97095 -4.66529,0.97095 -1.70509,0 -3.21282,-0.32365 -4.52319,-0.97095 -1.31039,-0.6473 -2.40764,-1.55509 -3.29175,-2.72339 -0.88412,-1.16829 -1.5551,-2.5655 -2.01294,-4.19165 -0.44206,-1.64192 -0.66309,-3.44961 -0.66308,-5.42309 -1e-5,-1.91031 0.21313,-3.67064 0.6394,-5.28101 0.44206,-1.62612 1.09725,-3.03123 1.96558,-4.21533 0.88411,-1.18406 1.98925,-2.10764 3.31543,-2.77075 1.34195,-0.66306 2.90493,-0.99461 4.68896,-0.99463 1.89452,2e-5 3.50487,0.33157 4.83106,0.99463 1.34194,0.66311 2.43129,1.58669 3.26806,2.77075 0.85252,1.16831 1.47614,2.56553 1.87085,4.19165 0.39467,1.61037 0.59202,3.37859 0.59204,5.30469 m -5.70727,0 c -2e-5,-3.04703 -0.4105,-5.25731 -1.23145,-6.63086 -0.80519,-1.37352 -1.98138,-2.06028 -3.52856,-2.06031 -1.61036,3e-5 -2.84181,0.69469 -3.69434,2.08399 -0.85254,1.38934 -1.27881,3.59173 -1.27881,6.60718 0,1.53142 0.11051,2.8497 0.33155,3.95483 0.22102,1.10515 0.53677,2.01295 0.94726,2.72339 0.42626,0.71045 0.93147,1.23934 1.51563,1.58667 0.58413,0.33155 1.22354,0.49732 1.91821,0.49731 0.80516,1e-5 1.51561,-0.16576 2.13135,-0.49731 0.63149,-0.34733 1.16038,-0.87622 1.58667,-1.58667 0.42625,-0.71044 0.7499,-1.61824 0.97094,-2.72339 0.22102,-1.10513 0.33153,-2.42341 0.33155,-3.95483"
             inkscape:connector-curvature="0" />
          <path
             style="font-size:48.5px;font-weight:bold;font-stretch:condensed;letter-spacing:0px;fill:#fffffa;fill-opacity:1;font-family:Liberation Sans Narrow;-inkscape-font-specification:Liberation Sans Narrow Bold Condensed"
             id="path8277"
             d="m 357.94641,368.52249 0,21.12402 -5.44678,0 0,-21.12402 -3.05493,0 0,-4.49951 3.05493,0 0,-2.67603 c 0,-0.97881 0.0947,-1.87871 0.28418,-2.6997 0.20524,-0.83672 0.53678,-1.56296 0.99463,-2.17871 0.47363,-0.61569 1.10514,-1.09722 1.89453,-1.44458 0.78938,-0.3473 1.76822,-0.52096 2.93653,-0.521 0.61571,4e-5 1.22354,0.0395 1.82348,0.11841 0.61571,0.079 1.16039,0.1658 1.63404,0.2605 l 0,4.28637 c -0.23683,-0.0631 -0.49733,-0.11048 -0.7815,-0.14209 -0.28419,-0.0473 -0.55258,-0.071 -0.80517,-0.071 -0.50522,3e-5 -0.9236,0.0632 -1.25513,0.18945 -0.33155,0.12633 -0.59205,0.31579 -0.78149,0.56836 -0.17368,0.25263 -0.29998,0.57628 -0.37891,0.97095 -0.079,0.37893 -0.11842,0.82099 -0.11841,1.32617 l 0,2.01294 4.12061,0 0,4.49951 -4.12061,0"
             inkscape:connector-curvature="0" />
          <path
             style="font-size:48.5px;font-weight:bold;font-stretch:condensed;letter-spacing:0px;fill:#fffffa;fill-opacity:1;font-family:Liberation Sans Narrow;-inkscape-font-specification:Liberation Sans Narrow Bold Condensed"
             id="path8279"
             d="m 402.37317,372.80887 c -3e-5,2.60499 -0.31579,4.97315 -0.94727,7.10449 -0.63153,2.13136 -1.54722,3.95484 -2.74707,5.47046 -1.1841,1.51563 -2.63658,2.68392 -4.35742,3.50488 -1.7051,0.82097 -3.6391,1.23145 -5.802,1.23145 -2.28924,0 -4.29428,-0.42627 -6.01514,-1.27881 -1.72087,-0.86833 -3.15756,-2.06819 -4.31006,-3.59961 -1.15251,-1.54719 -2.02083,-3.37857 -2.60498,-5.49414 -0.56836,-2.11555 -0.85254,-4.42845 -0.85254,-6.93872 0,-2.60496 0.29997,-4.95734 0.89991,-7.05713 0.59993,-2.09975 1.48404,-3.88376 2.65234,-5.35205 1.18408,-1.48402 2.62865,-2.62074 4.33374,-3.41016 1.72086,-0.80514 3.69432,-1.20773 5.92041,-1.20776 2.22606,3e-5 4.19953,0.40262 5.92041,1.20776 1.72084,0.80521 3.16542,1.94982 4.33374,3.43384 1.16827,1.48408 2.05238,3.27599 2.65234,5.37573 0.6157,2.08401 0.92356,4.4206 0.92359,7.00977 m -5.84937,0 c -2e-5,-1.75242 -0.17368,-3.3312 -0.52099,-4.73633 -0.33157,-1.42088 -0.83678,-2.63653 -1.51563,-3.64697 -0.6631,-1.01039 -1.49196,-1.78399 -2.48657,-2.3208 -0.99465,-0.55255 -2.14715,-0.82883 -3.45752,-0.82886 -1.34197,3e-5 -2.51027,0.27631 -3.50488,0.82886 -0.99464,0.53681 -1.83139,1.31041 -2.51026,2.3208 -0.67888,1.01044 -1.18409,2.22609 -1.51562,3.64697 -0.33155,1.40513 -0.49732,2.98391 -0.49732,4.73633 0,1.73667 0.16577,3.33123 0.49732,4.78369 0.34732,1.4367 0.85253,2.67603 1.51562,3.71802 0.67887,1.042 1.51562,1.85507 2.51026,2.43921 1.0104,0.58415 2.1708,0.87622 3.4812,0.87622 1.40509,0 2.60496,-0.29207 3.59961,-0.87622 1.0104,-0.59993 1.83925,-1.42089 2.48657,-2.46289 0.66306,-1.05777 1.14459,-2.30501 1.44458,-3.7417 0.31573,-1.45246 0.47361,-3.03124 0.47363,-4.73633"
             inkscape:connector-curvature="0" />
          <path
             style="font-size:48.5px;font-weight:bold;font-stretch:condensed;letter-spacing:0px;fill:#fffffa;fill-opacity:1;font-family:Liberation Sans Narrow;-inkscape-font-specification:Liberation Sans Narrow Bold Condensed"
             id="path8281"
             d="m 426.74158,376.71634 c -3e-5,1.9419 -0.1579,3.73381 -0.47364,5.37573 -0.31577,1.64193 -0.80519,3.05494 -1.46826,4.23902 -0.6631,1.18408 -1.50775,2.11556 -2.53393,2.79443 -1.01044,0.66308 -2.20241,0.99463 -3.57593,0.99463 -0.61574,0 -1.23935,-0.0789 -1.87085,-0.23682 -0.61574,-0.15788 -1.19988,-0.41048 -1.75244,-0.75781 -0.55258,-0.36312 -1.06569,-0.82886 -1.53931,-1.39722 -0.47364,-0.58414 -0.87623,-1.30249 -1.20776,-2.15503 l -0.11841,0 c 0.0158,0.079 0.0237,0.27629 0.0237,0.59204 0.0158,0.31576 0.0316,0.68677 0.0474,1.11304 0.0158,0.41048 0.0237,0.85254 0.0237,1.32617 0.0158,0.45785 0.0237,0.88412 0.0237,1.27881 l 0,9.82788 -5.47046,0 0,-29.7915 c 0,-1.31036 -0.0158,-2.47866 -0.0474,-3.50488 -0.0316,-1.02618 -0.0632,-1.82347 -0.0947,-2.39185 l 5.30469,0 c 0.0316,0.11054 0.0553,0.32367 0.071,0.6394 0.0316,0.31578 0.0553,0.6789 0.071,1.08936 0.0316,0.4105 0.0473,0.83677 0.0474,1.27881 0.0158,0.44208 0.0237,0.82888 0.0237,1.1604 l 0.0947,0 c 0.66308,-1.68927 1.57087,-2.89703 2.72339,-3.62329 1.15249,-0.72621 2.48656,-1.08933 4.00219,-1.08936 1.32616,3e-5 2.47077,0.33157 3.43384,0.99463 0.97882,0.66311 1.784,1.5788 2.41553,2.74707 0.63149,1.16832 1.09723,2.56553 1.39722,4.19165 0.29994,1.61037 0.44992,3.3786 0.44995,5.30469 m -5.6836,0 c -10e-6,-2.92072 -0.36313,-5.08364 -1.08935,-6.48877 -0.72625,-1.42088 -1.80771,-2.13133 -3.24439,-2.13135 -0.53679,2e-5 -1.08147,0.14211 -1.63403,0.42627 -0.53679,0.26841 -1.01832,0.74205 -1.44458,1.4209 -0.41049,0.6631 -0.74993,1.56301 -1.01831,2.69971 -0.2684,1.12094 -0.4026,2.54184 -0.40259,4.26269 -10e-6,1.67352 0.1263,3.07073 0.37891,4.19165 0.26838,1.10515 0.61571,1.98927 1.04199,2.65235 0.42626,0.66309 0.89989,1.13672 1.4209,1.42089 0.53677,0.2684 1.07355,0.4026 1.61035,0.40259 0.69465,1e-5 1.31037,-0.16576 1.84717,-0.49731 0.55255,-0.34733 1.0104,-0.87622 1.37353,-1.58667 0.37889,-0.72623 0.66307,-1.64981 0.85254,-2.77075 0.20523,-1.12092 0.30785,-2.45499 0.30786,-4.0022"
             inkscape:connector-curvature="0" />
          <path
             style="font-size:48.5px;font-weight:bold;font-stretch:condensed;letter-spacing:0px;fill:#fffffa;fill-opacity:1;font-family:Liberation Sans Narrow;-inkscape-font-specification:Liberation Sans Narrow Bold Condensed"
             id="path8283"
             d="m 439.81384,390.12015 c -1.51563,0 -2.88127,-0.26839 -4.09692,-0.80518 -1.21566,-0.55257 -2.24976,-1.38143 -3.1023,-2.48657 -0.85254,-1.12093 -1.50773,-2.51814 -1.96557,-4.19165 -0.44206,-1.68928 -0.66309,-3.66275 -0.66309,-5.92041 0,-2.44709 0.26839,-4.50739 0.80518,-6.18091 0.53678,-1.67348 1.25512,-3.02333 2.15503,-4.04956 0.91568,-1.04197 1.96557,-1.79189 3.14966,-2.24976 1.19986,-0.45781 2.46288,-0.68674 3.78906,-0.68676 1.6577,2e-5 3.0707,0.35525 4.23901,1.06567 1.16828,0.69469 2.12344,1.67353 2.86548,2.93652 0.75779,1.26305 1.31036,2.77867 1.65771,4.54688 0.3631,1.75246 0.54466,3.69435 0.54468,5.82568 l 0,0.18946 -13.47485,0 c -1e-5,1.07357 0.071,2.0761 0.21313,3.00756 0.15787,0.9157 0.41048,1.71298 0.75782,2.39185 0.34732,0.66309 0.79727,1.19198 1.34985,1.58667 0.56835,0.37891 1.24722,0.56836 2.03662,0.56836 0.96304,0 1.74453,-0.24471 2.34448,-0.73413 0.61571,-0.5052 1.04987,-1.2788 1.30249,-2.3208 l 5.13892,0.54468 c -0.23684,0.72624 -0.56838,1.49984 -0.99463,2.3208 -0.4105,0.82096 -0.96307,1.57877 -1.65771,2.27343 -0.69468,0.67888 -1.56301,1.24724 -2.60498,1.70508 -1.04201,0.44206 -2.30503,0.66309 -3.78907,0.66309 m 0,-22.37915 c -0.55258,2e-5 -1.07358,0.11843 -1.56299,0.35522 -0.48943,0.22105 -0.91569,0.58417 -1.2788,1.08936 -0.34734,0.48944 -0.63152,1.12884 -0.85254,1.91821 -0.22104,0.78941 -0.34734,1.73667 -0.37891,2.8418 l 8.17017,0 c -0.11053,-2.06818 -0.52101,-3.61538 -1.23145,-4.6416 -0.71046,-1.04198 -1.66562,-1.56297 -2.86548,-1.56299"
             inkscape:connector-curvature="0" />
          <path
             style="font-size:48.5px;font-weight:bold;font-stretch:condensed;letter-spacing:0px;fill:#fffffa;fill-opacity:1;font-family:Liberation Sans Narrow;-inkscape-font-specification:Liberation Sans Narrow Bold Condensed"
             id="path8285"
             d="m 466.97668,389.64651 0,-14.37475 c -10e-6,-0.99461 -0.0632,-1.90241 -0.18945,-2.72339 -0.12632,-0.83673 -0.33945,-1.54718 -0.6394,-2.13135 -0.29999,-0.59991 -0.69468,-1.06565 -1.18408,-1.39721 -0.47365,-0.33153 -1.0499,-0.4973 -1.72876,-0.49732 -0.6631,2e-5 -1.26304,0.18158 -1.79981,0.54468 -0.53679,0.34735 -1.00253,0.85256 -1.39722,1.51562 -0.37891,0.64732 -0.67888,1.42881 -0.8999,2.34449 -0.20525,0.89991 -0.30787,1.89454 -0.30786,2.98388 l 0,13.73535 -5.47046,0 0,-19.89257 c 0,-0.55255 -0.008,-1.12091 -0.0237,-1.70508 0,-0.58413 -0.008,-1.1367 -0.0237,-1.65772 -0.0158,-0.53676 -0.0316,-1.01039 -0.0474,-1.42089 -0.0158,-0.42625 -0.0316,-0.742 -0.0474,-0.94727 l 5.20996,0 c 0.0316,0.18948 0.0553,0.49734 0.071,0.92358 0.0158,0.41051 0.0395,0.86835 0.071,1.37354 0.0316,0.50523 0.0553,1.01044 0.0711,1.51562 0.0158,0.50523 0.0237,0.9315 0.0237,1.27881 l 0.071,0 c 0.74202,-1.95766 1.6656,-3.37855 2.77076,-4.26269 1.12091,-0.88409 2.45498,-1.32615 4.00219,-1.32617 1.26301,2e-5 2.32868,0.25263 3.19702,0.75781 0.8841,0.50523 1.60244,1.19989 2.15503,2.08398 0.55255,0.88414 0.94725,1.92613 1.18409,3.12598 0.25258,1.19989 0.37888,2.49448 0.3789,3.88379 l 0,16.26928 -5.44678,0"
             inkscape:connector-curvature="0" />
          <path
             style="font-size:48.5px;font-weight:bold;font-stretch:condensed;letter-spacing:0px;fill:#fffffa;fill-opacity:1;font-family:Liberation Sans Narrow;-inkscape-font-specification:Liberation Sans Narrow Bold Condensed"
             id="path8287"
             d="m 507.5907,389.64651 -9.8042,-15.32202 -3.38648,3.14966 0,12.17236 -5.73095,0 0,-33.36743 5.73095,0 0,15.13257 12.31446,-15.13257 6.67822,0 -11.67505,14.11426 12.62232,19.25317 -6.74927,0"
             inkscape:connector-curvature="0" />
          <path
             style="font-size:48.5px;font-weight:bold;font-stretch:condensed;letter-spacing:0px;fill:#fffffa;fill-opacity:1;font-family:Liberation Sans Narrow;-inkscape-font-specification:Liberation Sans Narrow Bold Condensed"
             id="path8289"
             d="m 531.10657,389.64651 0,-14.37475 c -2e-5,-0.99461 -0.0632,-1.90241 -0.18946,-2.72339 -0.12631,-0.83673 -0.33945,-1.54718 -0.6394,-2.13135 -0.29998,-0.59991 -0.69468,-1.06565 -1.18408,-1.39721 -0.47365,-0.33153 -1.0499,-0.4973 -1.72876,-0.49732 -0.6631,2e-5 -1.26303,0.18158 -1.79981,0.54468 -0.53679,0.34735 -1.00253,0.85256 -1.39721,1.51562 -0.37892,0.64732 -0.67889,1.42881 -0.89991,2.34449 -0.20524,0.89991 -0.30787,1.89454 -0.30786,2.98388 l 0,13.73535 -5.47046,0 0,-19.89257 c 0,-0.55255 -0.008,-1.12091 -0.0237,-1.70508 0,-0.58413 -0.008,-1.1367 -0.0237,-1.65772 -0.0158,-0.53676 -0.0316,-1.01039 -0.0474,-1.42089 -0.0158,-0.42625 -0.0316,-0.742 -0.0474,-0.94727 l 5.20997,0 c 0.0316,0.18948 0.0552,0.49734 0.071,0.92358 0.0158,0.41051 0.0395,0.86835 0.071,1.37354 0.0316,0.50523 0.0553,1.01044 0.0711,1.51562 0.0158,0.50523 0.0237,0.9315 0.0237,1.27881 l 0.0711,0 c 0.74201,-1.95766 1.6656,-3.37855 2.77075,-4.26269 1.12092,-0.88409 2.45498,-1.32615 4.0022,-1.32617 1.263,2e-5 2.32867,0.25263 3.19702,0.75781 0.88409,0.50523 1.60244,1.19989 2.15503,2.08398 0.55255,0.88414 0.94724,1.92613 1.18408,3.12598 0.25258,1.19989 0.37888,2.49448 0.3789,3.88379 l 0,16.26928 -5.44677,0"
             inkscape:connector-curvature="0" />
          <path
             style="font-size:48.5px;font-weight:bold;font-stretch:condensed;letter-spacing:0px;fill:#fffffa;fill-opacity:1;font-family:Liberation Sans Narrow;-inkscape-font-specification:Liberation Sans Narrow Bold Condensed"
             id="path8291"
             d="m 561.79797,376.81107 c -2e-5,1.95769 -0.22105,3.7496 -0.66308,5.37573 -0.44208,1.62614 -1.11306,3.03125 -2.01294,4.21533 -0.88414,1.1683 -1.99717,2.08399 -3.33911,2.74707 -1.32619,0.6473 -2.88128,0.97095 -4.66529,0.97095 -1.70508,0 -3.21281,-0.32365 -4.52319,-0.97095 -1.31039,-0.6473 -2.40764,-1.55509 -3.29175,-2.72339 -0.88412,-1.16829 -1.55509,-2.5655 -2.01294,-4.19165 -0.44206,-1.64192 -0.66308,-3.44961 -0.66308,-5.42309 0,-1.91031 0.21313,-3.67064 0.6394,-5.28101 0.44206,-1.62612 1.09725,-3.03123 1.96558,-4.21533 0.88411,-1.18406 1.98925,-2.10764 3.31543,-2.77075 1.34195,-0.66306 2.90493,-0.99461 4.68896,-0.99463 1.89452,2e-5 3.50487,0.33157 4.83106,0.99463 1.34194,0.66311 2.43129,1.58669 3.26806,2.77075 0.85252,1.16831 1.47614,2.56553 1.87085,4.19165 0.39467,1.61037 0.59202,3.37859 0.59204,5.30469 m -5.70727,0 c -2e-5,-3.04703 -0.4105,-5.25731 -1.23145,-6.63086 -0.80519,-1.37352 -1.98137,-2.06028 -3.52856,-2.06031 -1.61036,3e-5 -2.84181,0.69469 -3.69434,2.08399 -0.85254,1.38934 -1.27881,3.59173 -1.27881,6.60718 0,1.53142 0.11051,2.8497 0.33155,3.95483 0.22102,1.10515 0.53677,2.01295 0.94726,2.72339 0.42626,0.71045 0.93147,1.23934 1.51563,1.58667 0.58413,0.33155 1.22354,0.49732 1.91821,0.49731 0.80516,1e-5 1.51561,-0.16576 2.13135,-0.49731 0.63149,-0.34733 1.16038,-0.87622 1.58667,-1.58667 0.42625,-0.71044 0.7499,-1.61824 0.97095,-2.72339 0.22101,-1.10513 0.33152,-2.42341 0.33154,-3.95483"
             inkscape:connector-curvature="0" />
          <path
             style="font-size:48.5px;font-weight:bold;font-stretch:condensed;letter-spacing:0px;fill:#fffffa;fill-opacity:1;font-family:Liberation Sans Narrow;-inkscape-font-specification:Liberation Sans Narrow Bold Condensed"
             id="path8293"
             d="m 588.91345,389.64651 -5.75464,0 -3.36279,-15.62988 c -0.11053,-0.4894 -0.21315,-1.03408 -0.30786,-1.63403 -0.0947,-0.61571 -0.18947,-1.19196 -0.28418,-1.72876 l -0.30786,-1.89453 c -0.11053,0.63153 -0.22894,1.26304 -0.35523,1.89453 -0.11053,0.5368 -0.22104,1.11305 -0.33154,1.72876 -0.11053,0.61574 -0.22104,1.1762 -0.33154,1.6814 l -3.38648,15.58251 -5.75464,0 -5.44677,-25.62353 5.13891,0 2.65235,15.06152 c 0.0789,0.42628 0.15787,0.89992 0.23681,1.4209 l 0.2605,1.49194 c 0.0947,0.5368 0.19734,1.07358 0.30786,1.61036 0.0947,-0.59993 0.18155,-1.18408 0.2605,-1.75244 0.0789,-0.48942 0.16576,-0.98673 0.2605,-1.49195 l 0.23682,-1.27881 3.29174,-15.06152 5.84937,0 3.2207,15.06152 c 0.0947,0.4105 0.18943,0.87623 0.28418,1.39722 l 0.2605,1.46826 c 0.0947,0.53679 0.18154,1.08936 0.2605,1.65772 0.11049,-0.56836 0.20522,-1.12093 0.28418,-1.65772 -3e-5,1e-5 0.0868,-0.48941 0.26049,-1.46826 l 0.2605,-1.39722 2.77075,-15.06152 5.04419,0 -5.51782,25.62353"
             inkscape:connector-curvature="0" />
          <path
             style="font-size:48.5px;font-weight:bold;font-stretch:condensed;letter-spacing:0px;fill:#fffffa;fill-opacity:1;font-family:Liberation Sans Narrow;-inkscape-font-specification:Liberation Sans Narrow Bold Condensed"
             id="path8295"
             d="m 597.15466,389.64651 0,-35.14355 5.47046,0 0,35.14355 -5.47046,0"
             inkscape:connector-curvature="0" />
          <path
             style="font-size:48.5px;font-weight:bold;font-stretch:condensed;letter-spacing:0px;fill:#fffffa;fill-opacity:1;font-family:Liberation Sans Narrow;-inkscape-font-specification:Liberation Sans Narrow Bold Condensed"
             id="path8297"
             d="m 616.85779,390.12015 c -1.51564,0 -2.88128,-0.26839 -4.09693,-0.80518 -1.21566,-0.55257 -2.24976,-1.38143 -3.10229,-2.48657 -0.85254,-1.12093 -1.50773,-2.51814 -1.96558,-4.19165 -0.44206,-1.68928 -0.66308,-3.66275 -0.66308,-5.92041 0,-2.44709 0.26839,-4.50739 0.80517,-6.18091 0.53678,-1.67348 1.25513,-3.02333 2.15503,-4.04956 0.91569,-1.04197 1.96557,-1.79189 3.14966,-2.24976 1.19986,-0.45781 2.46288,-0.68674 3.78906,-0.68676 1.6577,2e-5 3.07071,0.35525 4.23902,1.06567 1.16827,0.69469 2.12343,1.67353 2.86548,2.93652 0.75779,1.26305 1.31036,2.77867 1.65771,4.54688 0.3631,1.75246 0.54466,3.69435 0.54468,5.82568 l 0,0.18946 -13.47486,0 c 0,1.07357 0.071,2.0761 0.21314,3.00756 0.15787,0.9157 0.41047,1.71298 0.75781,2.39185 0.34732,0.66309 0.79727,1.19198 1.34986,1.58667 0.56834,0.37891 1.24722,0.56836 2.03662,0.56836 0.96304,0 1.74453,-0.24471 2.34448,-0.73413 0.61571,-0.5052 1.04987,-1.2788 1.30249,-2.3208 l 5.13891,0.54468 c -0.23683,0.72624 -0.56837,1.49984 -0.99462,2.3208 -0.4105,0.82096 -0.96308,1.57877 -1.65772,2.27343 -0.69468,0.67888 -1.563,1.24724 -2.60498,1.70508 -1.04201,0.44206 -2.30503,0.66309 -3.78906,0.66309 m 0,-22.37915 c -0.55258,2e-5 -1.07358,0.11843 -1.56299,0.35522 -0.48943,0.22105 -0.9157,0.58417 -1.27881,1.08936 -0.34734,0.48944 -0.63152,1.12884 -0.85254,1.91821 -0.22103,0.78941 -0.34734,1.73667 -0.3789,2.8418 l 8.17016,0 c -0.11053,-2.06818 -0.52101,-3.61538 -1.23144,-4.6416 -0.71047,-1.04198 -1.66562,-1.56297 -2.86548,-1.56299"
             inkscape:connector-curvature="0" />
          <path
             style="font-size:48.5px;font-weight:bold;font-stretch:condensed;letter-spacing:0px;fill:#fffffa;fill-opacity:1;font-family:Liberation Sans Narrow;-inkscape-font-specification:Liberation Sans Narrow Bold Condensed"
             id="path8299"
             d="m 644.02063,389.64651 c -0.0316,-0.1263 -0.0632,-0.34733 -0.0947,-0.66308 -0.0316,-0.33154 -0.0632,-0.70256 -0.0947,-1.11304 -0.0316,-0.41048 -0.0553,-0.82885 -0.0711,-1.25513 -0.0158,-0.42626 -0.0237,-0.80517 -0.0237,-1.13671 l -0.071,0 c -0.63153,1.65771 -1.51564,2.84969 -2.65235,3.57592 -1.13673,0.71045 -2.49448,1.06568 -4.07324,1.06568 -1.32618,0 -2.47079,-0.33155 -3.43384,-0.99463 -0.96306,-0.66309 -1.76034,-1.58667 -2.39184,-2.77075 -0.63152,-1.18408 -1.09726,-2.5813 -1.39722,-4.19165 -0.29997,-1.62613 -0.44995,-3.39436 -0.44995,-5.30469 0,-1.94188 0.15787,-3.7259 0.47363,-5.35205 0.31575,-1.62612 0.80517,-3.02334 1.46826,-4.19165 0.66308,-1.18406 1.49983,-2.10764 2.51026,-2.77075 1.02619,-0.66306 2.23396,-0.99461 3.62329,-0.99463 0.67886,2e-5 1.33405,0.0869 1.96557,0.26049 0.64729,0.1737 1.23933,0.44209 1.77613,0.80518 0.55255,0.36314 1.04987,0.82888 1.49194,1.39722 0.44204,0.56838 0.81305,1.25515 1.11304,2.0603 l 0.0474,0 c -2e-5,-0.15786 -0.008,-0.38678 -0.0237,-0.68677 -2e-5,-0.31573 -2e-5,-0.67095 0,-1.06567 -2e-5,-0.39467 -0.008,-0.80515 -0.0237,-1.23145 -2e-5,-0.42624 -2e-5,-0.83672 0,-1.23144 l 0,-9.35425 5.47046,0 0,29.55469 c -3e-5,1.24724 0.0158,2.36027 0.0474,3.33911 0.0473,0.96305 0.0789,1.71297 0.0947,2.24975 l -5.28101,0 m -0.23682,-12.95385 c -1e-5,-1.68928 -0.13421,-3.08649 -0.40258,-4.19165 -0.25262,-1.12092 -0.59206,-2.00503 -1.01831,-2.65235 -0.42629,-0.66306 -0.90782,-1.12091 -1.44459,-1.37353 -0.53679,-0.26837 -1.08147,-0.40257 -1.63403,-0.40259 -0.69467,2e-5 -1.31039,0.16579 -1.84717,0.49731 -0.53679,0.33157 -0.99463,0.85256 -1.37353,1.56299 -0.36313,0.71047 -0.63941,1.61827 -0.82886,2.72339 -0.18946,1.10516 -0.28419,2.43923 -0.28418,4.0022 -1e-5,5.8099 1.42879,8.71485 4.28638,8.71484 0.53677,1e-5 1.08145,-0.14208 1.63403,-0.42627 0.55256,-0.28417 1.04198,-0.7657 1.46826,-1.44458 0.42626,-0.67886 0.77359,-1.58666 1.042,-2.72339 0.26837,-1.15249 0.40257,-2.58128 0.40258,-4.28637"
             inkscape:connector-curvature="0" />
          <path
             style="font-size:48.5px;font-weight:bold;font-stretch:condensed;letter-spacing:0px;fill:#fffffa;fill-opacity:1;font-family:Liberation Sans Narrow;-inkscape-font-specification:Liberation Sans Narrow Bold Condensed"
             id="path8301"
             d="m 663.55798,399.92435 c -1.38933,-1e-5 -2.61288,-0.17368 -3.67065,-0.521 -1.05779,-0.33155 -1.95769,-0.80518 -2.69971,-1.4209 -0.74203,-0.59994 -1.34196,-1.32618 -1.7998,-2.17871 -0.44206,-0.83676 -0.74203,-1.76034 -0.8999,-2.77075 l 5.44677,-0.78149 c 0.18945,1.0262 0.60782,1.83137 1.25513,2.41552 0.64729,0.58414 1.48404,0.87622 2.51025,0.87622 0.64729,0 1.23933,-0.11052 1.77613,-0.33154 0.53677,-0.22103 0.99461,-0.59994 1.37353,-1.13672 0.39468,-0.521 0.69465,-1.21566 0.8999,-2.08398 0.22102,-0.86833 0.33153,-1.9419 0.33155,-3.22071 -2e-5,1e-5 -2e-5,-0.44995 0,-1.34985 -2e-5,-0.45784 0.008,-0.87622 0.0237,-1.25513 0.0158,-0.44205 0.0237,-0.86832 0.0237,-1.2788 l -0.0474,0 c -0.63153,1.65771 -1.52354,2.85758 -2.67603,3.5996 -1.13673,0.74203 -2.50237,1.11304 -4.09692,1.11304 -1.32618,0 -2.47079,-0.31575 -3.43384,-0.94726 -0.96306,-0.6473 -1.76823,-1.53931 -2.41553,-2.67603 -0.63151,-1.1525 -1.09725,-2.51814 -1.39721,-4.09692 -0.29997,-1.59456 -0.44996,-3.347 -0.44996,-5.25733 0,-1.97345 0.15788,-3.75747 0.47364,-5.35205 0.33154,-1.61033 0.82885,-2.99176 1.49194,-4.14429 0.66308,-1.15248 1.49983,-2.03659 2.51025,-2.65234 1.0262,-0.63148 2.24186,-0.94724 3.64698,-0.94726 1.4051,2e-5 2.66022,0.36314 3.76538,1.08935 1.10513,0.72626 1.96556,1.90245 2.5813,3.52857 l 0.0947,0 c -10e-6,-0.33153 0.008,-0.71043 0.0237,-1.13672 0.0158,-0.44204 0.0395,-0.86041 0.0711,-1.25513 0.0316,-0.41046 0.0631,-0.77358 0.0947,-1.08936 0.0316,-0.31573 0.0552,-0.52886 0.071,-0.6394 l 5.18628,0 c -0.0316,0.56838 -0.0632,1.36567 -0.0947,2.39185 -0.0158,1.02622 -0.0237,2.20241 -0.0237,3.52856 l 0,18.92163 c -2e-5,1.86296 -0.22105,3.4812 -0.66308,4.85474 -0.44208,1.38931 -1.08938,2.54182 -1.9419,3.45752 -0.83677,0.91568 -1.87876,1.60245 -3.12597,2.0603 -1.23146,0.45783 -2.63657,0.68676 -4.21534,0.68677 m 4.57056,-23.44483 c -2e-5,-1.61033 -0.13421,-2.95229 -0.40259,-4.02588 -0.25262,-1.07355 -0.59205,-1.93398 -1.01831,-2.5813 -0.41049,-0.64727 -0.88413,-1.10512 -1.4209,-1.37353 -0.53679,-0.26837 -1.07358,-0.40257 -1.61035,-0.40259 -0.69467,2e-5 -1.31829,0.16579 -1.87085,0.49732 -0.53679,0.33156 -0.99464,0.84466 -1.37353,1.5393 -0.36313,0.69468 -0.64731,1.5788 -0.85254,2.65235 -0.18946,1.07358 -0.28419,2.35239 -0.28418,3.83642 -1e-5,2.76287 0.36311,4.84685 1.08935,6.25196 0.72623,1.40511 1.80769,2.10767 3.24439,2.10766 0.53677,1e-5 1.07355,-0.1263 1.61035,-0.3789 0.55256,-0.26839 1.04198,-0.72624 1.46826,-1.37354 0.42626,-0.66308 0.76569,-1.5393 1.01831,-2.62866 0.26838,-1.08935 0.40257,-2.46288 0.40259,-4.12061"
             inkscape:connector-curvature="0" />
          <path
             style="font-size:48.5px;font-weight:bold;font-stretch:condensed;letter-spacing:0px;fill:#fffffa;fill-opacity:1;font-family:Liberation Sans Narrow;-inkscape-font-specification:Liberation Sans Narrow Bold Condensed"
             id="path8303"
             d="m 687.71326,390.12015 c -1.51564,0 -2.88128,-0.26839 -4.09693,-0.80518 -1.21566,-0.55257 -2.24976,-1.38143 -3.10229,-2.48657 -0.85254,-1.12093 -1.50774,-2.51814 -1.96558,-4.19165 -0.44206,-1.68928 -0.66309,-3.66275 -0.66308,-5.92041 -1e-5,-2.44709 0.26839,-4.50739 0.80517,-6.18091 0.53678,-1.67348 1.25513,-3.02333 2.15503,-4.04956 0.91569,-1.04197 1.96557,-1.79189 3.14966,-2.24976 1.19986,-0.45781 2.46288,-0.68674 3.78906,-0.68676 1.6577,2e-5 3.07071,0.35525 4.23902,1.06567 1.16827,0.69469 2.12343,1.67353 2.86547,2.93652 0.7578,1.26305 1.31037,2.77867 1.65772,4.54688 0.3631,1.75246 0.54466,3.69435 0.54468,5.82568 l 0,0.18946 -13.47486,0 c 0,1.07357 0.071,2.0761 0.21314,3.00756 0.15787,0.9157 0.41047,1.71298 0.75781,2.39185 0.34732,0.66309 0.79727,1.19198 1.34985,1.58667 0.56835,0.37891 1.24723,0.56836 2.03662,0.56836 0.96305,0 1.74454,-0.24471 2.34449,-0.73413 0.61571,-0.5052 1.04987,-1.2788 1.30249,-2.3208 l 5.13891,0.54468 c -0.23683,0.72624 -0.56838,1.49984 -0.99463,2.3208 -0.4105,0.82096 -0.96307,1.57877 -1.65771,2.27343 -0.69468,0.67888 -1.563,1.24724 -2.60498,1.70508 -1.04201,0.44206 -2.30503,0.66309 -3.78906,0.66309 m 0,-22.37915 c -0.55259,2e-5 -1.07358,0.11843 -1.56299,0.35522 -0.48943,0.22105 -0.9157,0.58417 -1.27881,1.08936 -0.34734,0.48944 -0.63152,1.12884 -0.85254,1.91821 -0.22104,0.78941 -0.34734,1.73667 -0.37891,2.8418 l 8.17017,0 c -0.11053,-2.06818 -0.52101,-3.61538 -1.23144,-4.6416 -0.71047,-1.04198 -1.66563,-1.56297 -2.86548,-1.56299"
             inkscape:connector-curvature="0" />
        </g>
      </g>
    </g>
  </g>
</svg>
